<?xml version="1.0" encoding="UTF-8" standalone="no"?>
<!-- Created with Inkscape (http://www.inkscape.org/) -->

<svg
   xmlns:dc="http://purl.org/dc/elements/1.1/"
   xmlns:cc="http://creativecommons.org/ns#"
   xmlns:rdf="http://www.w3.org/1999/02/22-rdf-syntax-ns#"
   xmlns:svg="http://www.w3.org/2000/svg"
   xmlns="http://www.w3.org/2000/svg"
   xmlns:sodipodi="http://sodipodi.sourceforge.net/DTD/sodipodi-0.dtd"
   xmlns:inkscape="http://www.inkscape.org/namespaces/inkscape"
   width="626.24792"
   height="478.86264"
   id="svg2"
   version="1.1"
   inkscape:version="0.48.5 r10040"
   sodipodi:docname="wbccc-logo-1-2.svg"
   inkscape:export-filename="C:\Users\Mark\Google Drive\West Bexar County Church of Christ\marketing\wbccc-logo.png"
   inkscape:export-xdpi="90"
   inkscape:export-ydpi="90">
  <title
     id="title8211">West Bexar County Church of Christ Logo 1</title>
  <defs
     id="defs4">
    <linearGradient
       id="linearGradient8195">
      <stop
         style="stop-color:#3c4ad8;stop-opacity:1;"
         offset="0"
         id="stop8197" />
      <stop
         id="stop8209"
         offset="0.41428572"
         style="stop-color:#903279;stop-opacity:0.58431373;" />
      <stop
         style="stop-color:#e51a1a;stop-opacity:0.16814159;"
         offset="1"
         id="stop8199" />
    </linearGradient>
  </defs>
  <sodipodi:namedview
     id="base"
     pagecolor="#ffffff"
     bordercolor="#666666"
     borderopacity="1.0"
     inkscape:pageopacity="0.0"
     inkscape:pageshadow="2"
     inkscape:zoom="1.1361404"
     inkscape:cx="551.70572"
     inkscape:cy="192.28504"
     inkscape:document-units="px"
     inkscape:current-layer="layer1"
     showgrid="false"
     inkscape:window-width="1855"
     inkscape:window-height="1176"
     inkscape:window-x="57"
     inkscape:window-y="-8"
     inkscape:window-maximized="1"
     fit-margin-top="1"
     fit-margin-left="1"
     fit-margin-right="1"
     fit-margin-bottom="1"
     units="in" />
  <metadata
     id="metadata7">
    <rdf:RDF>
      <cc:Work
         rdf:about="">
        <dc:format>image/svg+xml</dc:format>
        <dc:type
           rdf:resource="http://purl.org/dc/dcmitype/StillImage" />
        <dc:title>West Bexar County Church of Christ Logo 1</dc:title>
      </cc:Work>
    </rdf:RDF>
  </metadata>
  <g
     inkscape:label="Layer 1"
     inkscape:groupmode="layer"
     id="layer1"
     transform="translate(26.785713,-93.989499)">
    <text
       xml:space="preserve"
       style="font-size:24px;font-style:normal;font-weight:normal;line-height:125%;letter-spacing:0px;word-spacing:0px;fill:#000000;fill-opacity:1;stroke:none;font-family:Sans"
       x="474.85767"
       y="432.83829"
       id="text7592"
       sodipodi:linespacing="125%"><tspan
         sodipodi:role="line"
         id="tspan7594"
         x="474.85767"
         y="432.83829"> </tspan></text>
    <g
       id="g3041"
       transform="translate(-84.643171,2.489505)"
       inkscape:export-xdpi="693.40002"
       inkscape:export-ydpi="693.40002"
       inkscape:export-filename="C:\Users\Mark\Google Drive\West Bexar County Church of Christ\marketing\wbccc-logo-large.png">
      <g
         transform="translate(-30.958748,-5.7211241)"
         id="g9021">
        <g
           id="g7683"
           transform="translate(166.25609,64.854457)">
          <path
             inkscape:connector-curvature="0"
             d="m 237.84175,285.98346 c 10.33646,-3.68909 1.81575,-0.75202 0.9097,-0.072 -0.74661,0.56034 1.75982,-0.62531 2.65265,-0.89783 0.38002,-0.11599 1.50376,-0.46884 1.16182,-0.26647 -0.97429,0.57665 -2.06226,0.93498 -3.09079,1.40815 -0.9925,0.4566 -1.9815,0.92076 -2.97226,1.38114 0.75227,-0.22284 1.50443,-0.44605 2.25681,-0.66851 0.80638,-0.23843 1.61712,-0.4625 2.41947,-0.71417 1.19886,-0.37603 4.21962,-2.25229 3.58357,-1.16874 -0.74506,1.26926 -2.73162,1.124 -3.99776,1.87434 -0.30533,0.18095 0.7113,-0.0494 1.05664,-0.13135 0.90017,-0.21354 1.7809,-0.502 2.67134,-0.753 -2.49765,1.09945 -5.74724,1.20085 -7.49297,3.29835 -6.80124,8.17169 9.78262,-5.78103 9.25499,-2.99902 -0.19089,1.00653 -1.81278,0.95501 -2.71674,1.43708 -4.31082,2.29894 -3.48972,1.70047 2.33889,-0.17242 -0.29372,0.24738 -0.57079,0.51602 -0.88117,0.74215 -0.49279,0.35901 -2.13411,1.02523 -1.52459,1.01052 1.2956,-0.0313 2.48803,-0.7273 3.7395,-1.06397 0.96737,-0.26025 2.39762,-1.58365 2.91614,-0.72653 0.49544,0.81898 -1.65185,0.9676 -2.48127,1.44536 -0.89225,0.51395 -1.78912,1.01982 -2.68368,1.52974 1.33691,-0.37358 2.63437,-1.301 4.01075,-1.12074 1.66244,0.21771 -6.99447,2.89302 -4.81643,2.8839 1.78343,-0.007 5.64136,-3.24285 5.1252,-1.53573 -0.4186,1.38448 -16.32655,6.19949 1.62609,0.35682 0.52733,1.04387 -12.51937,4.60868 -9.11066,4.64571 3.02653,0.0329 5.65418,-2.23502 8.61154,-2.87923 0.99774,-0.21734 -1.75193,1.0496 -2.62714,1.57565 -0.8835,0.53103 -3.67454,1.49141 -2.649,1.59559 1.67441,0.17008 3.23959,-0.91404 4.85938,-1.37106 -1.18093,0.65469 -4.19337,0.78088 -3.54279,1.96408 0.67189,1.22194 2.68482,-0.76718 4.05317,-1.03586 0.55777,-0.10952 2.07545,-0.52341 1.70264,-0.0943 -0.81934,0.94304 -4.39569,1.38087 -3.24691,1.87173 1.69233,0.72312 12.17641,-5.05786 -0.63616,1.44482 -5.34842,3.4494 3.13119,-0.68764 5.13187,-0.15602 0.2265,0.0602 -0.11974,0.4599 -0.11183,0.69413 0.0476,1.40675 1.07561,-0.22961 -1.19144,1.79456 0.73565,-5.96745 3.99954,-0.5246 3.16402,0.12027 -1.11625,0.86156 -2.59896,1.20268 -3.64253,2.15097 -0.23585,0.21431 0.67833,0.11204 0.88931,0.35088 0.1544,0.17478 -0.19268,0.73435 0.0378,0.69861 1.98861,-0.3084 3.87957,-1.0713 5.81935,-1.60695 1.0721,-0.1861 4.14775,-1.12085 3.21632,-0.55829 -20.62181,12.45509 -10.20504,2.76747 -5.50592,3.66773 0.93539,0.1792 -3.26846,1.62741 -2.31709,1.67173 3.65732,0.17039 9.88328,-4.06573 1.91989,0.74618 1.10507,-0.18544 2.19579,-0.50665 3.31521,-0.55634 0.37069,-0.0165 1.32721,0.11303 1.05251,0.36249 -0.0394,0.0358 -7.31583,3.20908 -2.56761,2.64062 4.91777,-0.58876 2.91893,-1.75701 4.89473,-0.33381 -0.67238,0.55104 -2.25127,0.81592 -2.01712,1.65312 0.21938,0.78439 2.83392,-0.85632 2.43923,-0.14384 -0.69704,1.25827 -4.4997,1.16017 -3.64191,2.31486 0.93804,1.26272 3.6855,-2.28636 4.60904,-1.013 1.21546,1.67586 -19.10981,6.95484 4.41947,-0.0848 7.11525,-0.92737 -9.3452,3.57836 -6.78456,4.44752 1.38491,0.47008 3.13735,-1.78852 4.29526,-0.8951 0.92045,0.7102 -3.89118,1.49207 -2.85033,2.00998 1.44992,0.72146 3.14383,-0.79152 4.73919,-1.07011 0.8675,-0.15148 1.75528,-0.14481 2.63292,-0.21722 0.33524,1.78219 0.0932,-0.31924 -0.30244,1.84312 -0.0496,0.27124 0.33193,0.65611 0.11008,0.81986 -1.63849,1.20941 -4.48623,1.15741 -5.31131,3.01928 -0.6035,1.36188 2.88662,-0.86576 4.37563,-0.90782 0.26989,-0.008 0.15067,0.51855 0.22601,0.77783 3.10391,2.33177 -4.82717,-3.32505 6.00202,-0.70136 1.03558,0.2509 -1.7298,1.24662 -2.55788,1.91719 -0.62906,0.5094 -2.61495,1.69966 -1.80949,1.61945 6.79198,-0.6764 9.46867,-4.61309 6.5422,-0.88308 -1.58385,0.94367 -3.1677,1.88735 -4.75154,2.83102 0.26484,0.1912 0.93036,0.27654 0.79453,0.57361 -0.33625,0.73539 -2.56128,1.35262 -1.80027,1.62598 1.3184,0.47357 2.75016,-0.53535 4.1277,-0.78995 1.2842,-0.23736 4.18075,-1.95117 3.85735,-0.6859 -0.42232,1.65232 -2.90963,1.77991 -4.36444,2.66986 0.91465,-0.0789 2.28262,-1.03032 2.74393,-0.23661 0.4252,0.73157 -1.27263,1.11548 -1.90895,1.67322 2.19372,-0.59996 4.53061,-2.78355 6.58116,-1.79988 1.6061,0.77046 -3.6532,1.23793 -4.57464,2.76243 -0.54686,0.90477 2.11675,-0.63934 3.14635,-0.39935 0.36092,0.0841 -0.25672,0.69531 -0.38508,1.04296 8.06724,-1.43074 2.5992,-1.15521 2.0269,0.93164 -0.1135,0.41389 1.16315,-0.0504 1.23226,0.37319 0.0854,0.52369 -1.48574,1.16531 -0.9648,1.26613 2.93677,0.56835 8.81626,-3.63975 -0.9037,2.09988 9.81769,-1.20091 -4.4923,0.12317 -1.21116,2.23393 1.70634,1.09769 3.89167,-1.17999 5.88763,-1.54419 4.67294,-0.85265 -1.34826,2.11508 -1.22547,2.24192 0.9884,1.02108 2.78629,-0.56094 4.17944,-0.84141 -0.82067,0.62573 -1.81729,1.07135 -2.462,1.87719 -0.16814,0.21016 0.14964,0.59915 0.39818,0.70243 0.52526,0.21826 1.13038,0.20444 1.69805,0.1686 1.10507,-0.0698 2.18696,-0.35232 3.28645,-0.48328 0.87735,-0.10451 2.61991,-1.1061 2.6413,-0.2228 0.0261,1.0775 -1.73344,1.28138 -2.60016,1.92207 -0.87053,1.72449 -0.766,0.62909 0.49277,1.50063 0.91665,0.63465 0.0163,1.17603 1.8202,0.94522 4.69824,-0.60116 5.9519,-2.47366 3.41861,0.27903 -8.0497,5.49415 -1.50841,0.26398 -0.65601,1.94303 0.34768,0.68487 -1.71941,0.76713 -1.71831,1.5352 8.2e-4,0.575 1.14688,0.085 1.72067,0.12233 2.16657,0.1409 1.18583,-0.11668 2.79238,0.5022 -0.0112,0.27775 -0.29631,0.74257 -0.0335,0.83327 0.69424,0.23964 1.64369,-0.56244 2.20166,-0.0849 0.37942,0.32474 -0.50879,0.8938 -0.91164,1.18898 -1.3003,0.95277 -2.92203,1.44624 -4.13453,2.5085 -0.21243,0.18611 0.36769,0.50813 0.6475,0.54646 0.76629,0.10499 1.54406,-0.0936 2.31609,-0.14041 1.72392,0.8175 0.53358,0.44611 3.54138,0.16019 0.82581,-0.0785 2.91683,-0.91871 2.47938,-0.2139 -3.76659,6.06867 -4.23434,-1.63849 -8.2326,4.94742 -0.55353,0.91177 2.10618,-0.33902 3.15926,-0.50852 -0.81583,0.59326 -3.45417,1.84436 -2.4475,1.7798 2.41804,-0.1551 4.60815,-1.5207 6.96813,-2.06976 4.93137,-1.1473 -0.82793,1.34309 -0.27655,1.64831 1.10341,0.61079 2.46434,-0.54224 3.70737,-0.75545 0.89585,-0.15366 1.8033,-0.22961 2.70494,-0.34442 -1.87014,1.01294 -3.74028,2.02588 -5.61042,3.03883 0.15895,0.18322 0.23434,0.55422 0.47686,0.54967 1.13227,-0.0212 2.20813,-0.58841 3.34012,-0.62126 0.30324,-0.009 0.82363,0.93652 1.00865,1.06584 0.26386,0.18442 0.5941,0.24814 0.89115,0.37221 10.43462,-2.04139 -0.0125,-0.53797 1.47574,0.86684 2.92057,2.75683 7.47297,-7.41674 -1.77649,2.18597 -0.58778,0.61023 1.6827,-0.19996 2.52406,-0.29994 -2.62072,1.31498 -5.24145,2.62996 -7.86217,3.94494 1.6826,-0.44518 3.36519,-0.89036 5.04778,-1.33554 -0.18902,0.32055 -0.93539,1.01465 -0.56706,0.96165 2.08925,-0.30066 4.02854,-1.27589 6.08408,-1.75558 0.72549,-0.1693 2.81878,-0.63699 2.22734,-0.18401 -4.10295,3.14245 -14.16492,5.80488 1.71044,0.78299 -0.99515,-4.61597 -3.00384,2.36504 -1.9946,2.28918 1.41926,-0.10667 5.24186,-1.88574 4.16033,-0.96056 -2.11534,1.80955 -5.89053,1.46817 -7.44961,3.77434 -2.54458,3.76392 15.72934,-7.37417 1.86725,0.72161 2.8741,-0.92357 5.70829,-3.55934 8.62232,-2.77073 2.33572,0.63211 -4.4134,2.0306 -6.43315,3.36318 -0.2112,0.13934 0.34684,0.37681 0.56145,0.51082 0.26892,0.16791 1.05285,0.12396 0.87046,0.38328 -1.74113,2.47539 -3.27716,0.90282 -1.71932,2.17059 12.52833,-3.53572 5.63597,-2.6707 4.73839,-0.45047 -0.12345,0.30537 1.03976,0.73938 0.67464,1.19226 -1.92535,2.38809 -7.8237,3.25725 4.54061,-0.37488 -13.13242,6.73591 -7.47008,2.94579 -3.867,3.05451 0.22885,0.007 0.0492,0.56884 0.26929,0.63186 0.59823,0.17126 1.59817,-0.58173 1.86668,-0.0204 0.25742,0.53817 -0.82731,0.86181 -1.27633,1.25458 -0.59908,0.52401 -1.24266,0.99485 -1.86398,1.49228 1.83277,0.97292 4.32069,-2.074 6.0547,-0.98987 2.88599,1.80436 -3.95176,0.81401 -2.62868,2.5129 0.30652,0.39357 0.99459,0.0789 1.49224,0.1135 0.50999,0.0355 1.02041,0.0645 1.53061,0.0967 6.13892,-0.0409 -3.47886,-0.31157 -0.79806,1.76278 1.02824,0.79562 2.51137,-0.88946 3.81026,-0.83333 0.3829,0.0165 -0.35962,0.6857 -0.61506,0.97141 -0.42377,0.47399 -1.89908,0.8878 -1.40589,1.28905 0.67263,0.54725 1.71991,-0.22261 2.57987,-0.33391 -1.70224,2.16011 0.12875,-0.097 -1.93428,2.21574 -0.30785,0.34511 -1.33587,1.17336 -0.88556,1.06801 3.07851,-0.7202 5.89257,-2.4324 9.00845,-2.96831 1.17685,-0.20241 -2.0682,1.20751 -3.01346,1.93721 -0.35249,0.27211 -0.56053,0.69208 -0.8408,1.03812 -4.95003,3.49198 -1.07409,0.3353 2.00084,0.56977 0.65256,0.0498 -0.99159,0.85468 -1.47512,1.29571 -2.80837,2.5615 -0.68854,0.25643 0.70759,1.09023 0.32363,0.19327 -0.42408,0.62332 -0.63611,0.93498 0.25582,0.12037 0.9436,0.13992 0.76748,0.36109 -0.59385,0.74577 -1.86751,0.80662 -2.35139,1.62801 -0.22429,0.38074 0.88902,0.22038 1.32,0.12277 2.00772,-0.45468 3.92384,-1.25493 5.91892,-1.76215 0.8482,-0.21564 2.28952,-1.22256 2.59454,-0.40226 0.3095,0.83237 -1.44585,1.03154 -2.16877,1.54731 1.54686,0.52041 -3.8004,1.67099 -2.84514,2.49462 0.88395,0.76216 8.3256,-2.65596 6.99827,-1.52162 -3.57425,3.05458 -14.3586,5.71912 -2.72505,2.47011 9.43938,-1.75609 -4.56536,0.52691 -2.05632,2.20062 1.8386,1.22648 4.13856,-1.81715 6.3463,-1.92012 1.04578,-0.0488 -3.12175,0.83216 -2.61077,1.7459 0.53539,0.95737 4.04476,-1.37495 3.22713,-0.64373 -1.68266,1.50485 -4.00403,2.08599 -6.00605,3.12898 0.5046,0.0168 1.01695,0.14006 1.51379,0.0503 9.91467,-1.79068 3.59724,-1.97356 3.23077,0.0129 -0.0543,0.29411 1.02661,0.0945 0.83623,0.32515 -2.28956,2.77382 -2.92644,0.54659 -2.27497,2.25438 1.91342,-0.56454 3.79407,-2.13199 5.74028,-1.69362 1.07059,0.24114 -6.67239,3.20384 -6.30235,3.90171 0.51199,0.96558 2.16139,-0.3568 3.21223,-0.65716 2.49628,-0.71353 5.40972,-4.02863 7.41599,-2.38077 1.83718,1.50897 -4.22826,2.17504 -6.34239,3.26256 1.1654,-0.26048 2.3077,-0.89747 3.49622,-0.78146 0.45817,0.0447 -0.91269,0.57296 -0.91629,1.03329 -0.002,0.31633 0.60616,0.18167 0.906,0.28251 0.28555,0.096 0.54891,0.29123 0.84971,0.30798 0.64835,0.0361 1.29346,-0.12155 1.94207,-0.15249 0.53955,-0.0257 1.08026,-0.0116 1.6204,-0.0174 2.97214,0.60656 0.28749,-0.1768 -3.52607,2.72854 -0.26149,0.19921 0.63746,0.16087 0.9562,0.24131 0,0 -15.21455,6.24053 -15.21455,6.24053 l 0,0 c -0.22351,-0.1226 -0.41689,-0.39318 -0.67055,-0.3678 -5.51532,0.55202 -1.791,1.09379 -4.55114,0.58428 21.39441,-10.29135 2.83461,-0.92058 -0.32346,-1.15489 -2.47603,-0.18372 4.56323,-2.01342 6.64208,-3.37094 0.36201,-0.23639 -1.07257,0.24976 -1.29119,-0.12325 -0.28851,-0.49226 1.30549,-0.89678 0.65202,-1.58269 -1.64333,0.45321 -3.27704,0.94288 -4.92999,1.35963 -1.14168,0.28784 -2.75163,1.70063 -3.45094,0.75339 -0.0883,-0.11965 4.94714,-3.04801 5.02179,-3.3793 0.17111,-0.7593 -2.38406,1.0196 -2.30513,-0.37253 11.20567,-6.22956 -0.60209,0.7166 -3.17843,-0.025 -2.09441,-0.60285 7.96625,-3.13495 5.7889,-3.03946 -9.87805,0.43322 -12.71249,6.28825 -5.70921,1.00312 0.19566,-0.14766 0.0899,-0.48194 0.13491,-0.72291 -0.41428,-0.1067 -1.40698,-0.29324 -1.7808,-0.62616 -0.67917,-0.60486 0.29141,-0.77029 -1.05785,-0.91805 -2.86617,-0.31389 -4.97499,1.79757 3.17424,-2.65302 -13.07936,3.88579 -2.96996,1.33037 -0.84714,-1.00652 0.73184,-0.80564 -2.11454,0.59702 -3.20215,0.63865 -0.21646,0.008 -0.5152,-0.30822 -0.41487,-0.50021 0.2746,-0.52544 1.77331,-0.84061 1.30682,-1.20651 -0.64276,-0.50416 -1.61923,0.21762 -2.42884,0.32644 -0.8604,0.13208 -1.7322,0.58842 -2.58121,0.39624 -0.32593,-0.0738 0.28625,-0.6133 0.50459,-0.86628 0.37441,-0.43383 0.93278,-0.70064 1.2561,-1.17378 0.12394,-0.18137 0.21559,-0.64564 -0.004,-0.659 -2.61951,-0.15963 -3.92122,1.57727 -1.68368,-0.65493 0.0972,-0.26803 0.45852,-0.57294 0.29162,-0.80409 -0.21241,-0.29417 -0.7235,-0.1158 -1.05776,-0.25696 -0.13386,-0.0565 -1.12254,-0.65405 -0.71889,-1.09037 1.94877,-2.1065 5.43641,-2.39145 -2.14231,-0.51925 7.90467,-5.26827 0.68183,0.17024 0.50552,-1.61063 -0.0851,-0.85925 2.20646,-0.70193 2.0718,-1.55481 -0.18981,-1.20229 -5.30726,2.1904 -4.12909,-0.46357 -6.31453,0.8878 -0.90498,0.58783 -0.81793,-1.09759 0.0309,-0.59736 -1.78182,0.61454 -1.79438,0.0165 -0.0159,-0.75882 1.27616,-0.85812 1.7645,-1.43914 0.85227,-1.01401 -3.16064,-6.93012 -3.96999,0.17414 -0.39169,-0.0813 -0.77505,-0.24886 -1.17507,-0.24404 -0.83478,0.0101 -2.82768,1.05075 -2.48789,0.28819 0.52482,-1.17779 2.21098,-1.33015 3.27605,-2.05696 0.29695,-0.20264 3.41526,-1.68615 1.20113,-1.94604 -0.66573,-0.0781 -1.33951,0.054 -2.00927,0.081 5.91553,-3.4293 5.37419,-2.36798 1.67862,-2.1536 -0.55406,0.0321 -1.55371,0.48405 -1.6639,-0.0599 -0.12591,-0.62146 1.85166,-0.86759 1.38831,-1.30047 -1.93943,-1.81187 -3.13651,1.85566 -2.12604,-0.6144 -1.50804,0.36881 -3.0052,1.42747 -4.52413,1.10645 -0.87456,-0.18484 1.56211,-0.93166 2.14509,-1.60926 0.14907,-0.17327 0.0312,-0.69073 -0.19495,-0.65741 -1.87963,0.27705 -3.59986,1.50493 -5.49978,1.49677 -1.39928,-0.006 4.07187,-2.29986 3.16393,-2.75897 -0.10497,-2.65714 -0.24037,-0.60806 5.05108,-3.52706 0.28099,-1.62861 -3.19998,0.82855 -4.80627,1.21736 -1.37775,0.33349 -2.74349,0.73865 -4.14527,0.9494 -3.35279,0.50406 -0.55051,-0.86419 0.58898,-1.71596 0.49044,-0.4464 2.12078,-1.20495 1.47133,-1.3392 -1.29353,-0.2674 -2.56085,0.68253 -3.87196,0.84294 -0.4295,0.0525 -1.62938,0.0436 -1.28061,-0.21255 1.76308,-1.29465 3.90043,-1.98704 5.78596,-3.0958 0.84437,-0.49652 3.29763,-1.34565 2.38891,-1.71132 -1.33597,-0.5376 -2.80516,0.65294 -4.20774,0.97941 -1.12047,0.21356 -2.22163,0.59639 -3.36141,0.64068 -0.25863,0.0101 -0.75828,-0.27789 -0.60514,-0.48655 0.52868,-0.72035 2.24642,-0.722 2.14355,-1.6096 -0.0888,-0.76659 -2.60966,0.92441 -2.30514,0.21531 0.93686,-2.18153 18.75654,-7.26628 -6.87397,1.36004 2.32754,-1.19699 4.81195,-2.12864 6.98262,-3.59096 0.40131,-0.27036 -1.02059,0.0929 -1.44492,-0.13964 -0.20572,-0.11275 0.0475,-0.50483 -0.0846,-0.69867 -0.15598,-0.22882 -0.821,-0.20169 -0.69835,-0.44997 0.89831,-1.81844 4.46704,-1.86945 -1.43571,-0.88558 0.60161,-0.49131 2.52179,-1.17505 1.80485,-1.47393 -1.12743,-0.46999 -2.38462,0.5385 -3.5911,0.72929 -0.76103,0.12035 -1.53395,0.25661 -2.30255,0.20274 -0.29468,-0.0206 -0.8962,-0.14685 -0.78098,-0.41885 0.26895,-0.63487 1.10434,-0.84582 1.54231,-1.37833 0.19827,-0.24107 0.21083,-0.58758 0.31624,-0.88137 -0.34879,-2.29246 -1.17557,-0.79961 -3.40258,-0.8966 -0.2724,-0.0119 -0.77787,-0.27272 -0.64078,-0.5084 0.39624,-0.68119 2.42652,-1.01396 1.8166,-1.51299 -0.80396,-0.65778 -2.05273,0.32003 -3.07909,0.48004 -1.56837,-0.82934 -0.55361,-0.48767 -3.35997,-0.20084 -0.88561,0.0905 -3.18691,1.00387 -2.65487,0.29013 1.00895,-1.35352 2.89765,-1.73336 4.35977,-2.57727 6.863,-3.96124 7.34567,-3.53846 -1.68465,-0.91132 0.64014,-0.53067 1.34747,-0.98941 1.92042,-1.59201 0.27681,-0.29114 0.5641,-0.64922 0.59159,-1.05001 0.0178,-0.25985 -0.21762,-0.64098 -0.47713,-0.61879 -1.55101,0.13264 -3.00261,1.21168 -4.55072,1.04875 -1.29431,-0.13622 4.05131,-2.6308 2.75413,-2.76747 -4.90784,-0.68791 2.0431,0.67903 0.12223,-1.69694 -0.55163,-0.68232 -2.26447,1.04888 -2.62064,0.24701 -0.35047,-0.78907 2.62318,-1.05189 1.99844,-1.64784 -0.7843,-0.74816 -2.14334,0.32488 -3.21501,0.48733 -0.15464,-0.21588 -0.30929,-0.43176 -0.46393,-0.64765 -0.29473,-0.15923 -0.54934,-0.48739 -0.88419,-0.47768 -1.19396,0.0346 -3.25116,1.76668 -3.53184,0.60566 -0.29903,-1.23695 2.26165,-1.24074 3.16054,-2.14155 0.0229,-0.023 -0.61518,-1.43618 -0.63492,-1.43793 -1.0325,-0.0915 -2.05494,0.27373 -3.08241,0.4106 -0.15909,-0.22 -0.32771,-0.43341 -0.47726,-0.65999 -0.14747,-0.22343 -0.19103,-0.53912 -0.41297,-0.68881 -0.34032,-0.22952 -1.44085,-0.0701 -1.17144,-0.37979 0.9191,-1.05653 3.68054,-0.91852 3.50998,-2.30845 -0.35772,-2.91525 -7.29557,3.85264 -1.91965,-0.95193 -0.4779,-0.094 -1.60123,0.17528 -1.43372,-0.28208 0.32179,-0.87857 3.11229,-1.65355 2.18321,-1.76426 -1.86592,-0.22235 -4.25603,2.80923 -5.46763,1.37288 -1.1015,-1.30582 6.08565,-2.69519 4.37756,-2.66515 -7.62443,0.13404 -10.64496,5.78766 -8.1496,1.59721 1.2057,-0.7831 3.23078,-0.96447 3.6171,-2.34928 0.27721,-0.99366 -2.03868,0.39843 -3.07024,0.38902 -0.38738,-0.004 -0.69361,-0.43334 -1.08095,-0.42691 -1.12895,0.0188 -2.58362,1.32957 -3.35013,0.50051 -0.63479,-0.68657 1.44264,-1.19019 2.17531,-1.77118 0.80034,-0.63466 1.61556,-1.25031 2.42335,-1.87546 -0.76142,0.0162 -1.6371,0.45015 -2.28426,0.0486 -0.58194,-0.36103 1.85463,-2.12212 1.51038,-2.39896 -0.62958,-0.50631 -2.41015,0.90512 -2.42176,0.0973 -0.0296,-2.05757 9.43155,-3.44188 -2.42484,-0.79863 -2.41852,0.69065 -4.75055,1.84564 -7.25555,2.07195 -0.7476,0.0675 0.98569,-1.16353 1.62126,-1.56293 2.09082,-1.31391 5.34535,-1.3641 6.50546,-3.54402 0.85163,-1.60027 -3.48064,1.36795 -5.29024,1.26054 -0.69428,-0.0412 0.97532,-0.9918 1.46298,-1.4877 -0.70442,-0.012 -1.40883,-0.024 -2.11325,-0.036 0.65237,-0.56239 1.30475,-1.12477 1.95712,-1.68716 -0.24609,-0.19563 -0.94928,-0.35382 -0.73829,-0.58689 0.88628,-0.97899 4.5306,-1.79571 3.28046,-2.22123 -1.83516,-0.62465 -3.73841,1.04196 -5.64013,1.41805 -0.90561,0.1791 -3.41167,0.8956 -2.75878,0.24296 1.54345,-1.54284 3.80906,-2.13107 5.71359,-3.1966 -2.08222,-0.75986 -0.73161,-0.45941 -4.15543,-0.0505 -1.01185,0.12086 -3.48763,1.27627 -3.03548,0.36304 0.71372,-1.44154 5.56476,-1.84707 4.10876,-2.53078 -3.25605,-1.52897 -8.84076,4.20725 -4.47262,0.0965 -0.82802,0.0517 -1.65447,0.14732 -2.48407,0.15524 -6.07258,0.058 4.50197,-1.35707 5.39665,-3.89667 0.74852,-2.12475 -4.26768,1.66777 -6.51716,1.78882 -0.5427,0.0292 4.66514,-3.15201 -0.22109,-1.61539 -1.44376,-2.27297 0.54862,1.36472 3.31278,-3.05044 0.40915,-0.65352 -2.67996,0.75843 -2.31169,0.081 0.6626,-1.21881 2.42025,-1.38223 3.49558,-2.25869 0.32423,-0.26427 1.02866,-1.1644 0.61653,-1.09294 -2.71489,0.47074 -5.2815,1.57313 -7.92225,2.35969 -5.10507,0.44446 -1.98079,0.55394 1.84544,-2.40413 0.20968,-0.16211 0.20587,-0.8116 -0.0585,-0.79297 -1.65511,0.11664 -3.19328,1.28873 -4.84569,1.13859 -0.71378,-0.0649 1.06856,-0.9555 1.60285,-1.43324 -1.0676,0.16951 -2.13519,0.33903 -3.20278,0.50854 3.15973,-2.37752 2.85986,-1.60205 -0.74969,-1.22561 -0.72011,0.0751 -2.64054,0.66916 -2.16875,0.11995 1.03342,-1.20302 2.74454,-1.59007 4.11592,-2.38665 1.33338,-0.77451 5.53514,-2.4531 3.99834,-2.3266 -2.99402,0.24646 -5.73126,1.80343 -8.59689,2.70514 1.01805,-2.65847 -0.61982,1.07903 4.37506,-3.17979 0.24918,-0.21246 -0.59679,-0.38627 -0.92116,-0.3414 -1.53669,0.21256 -2.99114,0.85233 -4.52344,1.0945 -0.44452,0.0702 -1.47201,0.26225 -1.33962,-0.16787 0.22622,-0.73496 1.21698,-0.94039 1.82547,-1.41058 -0.0168,-0.22 -0.235,-0.53924 -0.0503,-0.66001 1.65878,-1.08484 7.24658,-2.60617 5.27005,-2.75364 -2.8144,-0.20998 -5.36174,1.76884 -8.07532,2.54433 -1.20593,0.34464 -4.77269,1.41769 -3.67368,0.81335 3.7979,-2.08841 8.06268,-3.23843 11.86548,-5.31791 1.09867,-0.60078 -2.44211,0.5551 -3.66317,0.83265 -1.39947,0.35038 -2.79894,0.70077 -4.19842,1.05115 0.5379,-0.40968 2.24544,-0.98804 1.6137,-1.22903 -0.99458,-0.37939 -3.86289,1.42046 -3.12618,0.65208 11.05881,-11.53424 4.71135,0.46603 2.9063,-2.28931 -0.33043,-0.50439 0.94661,-0.74721 1.41991,-1.12081 -0.99652,0.21022 -1.98864,0.44256 -2.98958,0.63065 -0.75617,0.1421 -1.71116,0.87765 -2.28004,0.35961 -0.45109,-0.41078 1.50446,-0.50408 1.45373,-1.11208 -0.0427,-0.51216 -1.86539,0.48041 -1.5396,0.0829 0.68709,-0.83832 2.11704,-0.80187 2.81118,-1.63436 0.32632,-0.39136 -1.01723,0.0619 -1.52584,0.0928 -0.58684,0.0639 -1.18827,0.33652 -1.76051,0.19163 -0.20071,-0.0508 0.0529,-0.45234 0.21318,-0.58341 0.64898,-0.53071 1.89265,-0.53084 2.13191,-1.33432 0.17308,-0.58126 -1.21687,0.0834 -1.80431,0.23416 -1.67368,0.42955 -3.2339,1.46096 -4.96134,1.50223 -0.94674,0.0226 1.63184,-0.96145 2.44777,-1.44217 6.89858,-3.63292 2.72659,-1.13097 -0.62162,-0.66159 -0.35605,0.0499 0.47846,-0.54711 0.77557,-0.74956 0.73025,-0.49757 2.56006,-0.49729 2.28842,-1.33816 -0.31878,-0.98684 -6.041,2.67358 -0.45793,-0.62739 -1.79362,-0.33854 0.58602,0.26058 1.15831,-1.21338 0.18011,-0.46388 -0.97795,0.22768 -1.47558,0.22666 -0.12496,-2.5e-4 -0.17095,-0.23482 -0.29583,-0.23026 -0.28768,0.0105 -3.02678,0.59526 -3.27605,0.64731 -0.15776,-0.0368 -0.56893,0.0202 -0.47328,-0.11057 0.25595,-0.34989 1.5104,-0.788 1.082,-0.72157 -1.17621,0.18239 -2.25224,0.77767 -3.40308,1.08148 -0.2082,0.055 -0.8361,0.0883 -0.64588,-0.0126 3.62545,-1.92301 8.88808,-3.55767 -0.42974,-0.35239 1.39677,-0.62604 2.79354,-1.25209 4.19032,-1.87814 -0.83444,0.26036 -3.2812,1.17978 -2.50331,0.78109 1.82676,-0.93625 3.84121,-1.47074 5.66957,-2.40386 0.80135,-0.40898 -1.71381,0.54823 -2.57072,0.82234 -0.17129,0.0137 -0.64929,0.14687 -0.51386,0.0411 0.39107,-0.3054 0.88427,-0.45042 1.3264,-0.67563 0,0 7.92913,-3.04342 7.92913,-3.04342 z"
             id="path7636"
             style="fill:#808080" />
          <path
             inkscape:connector-curvature="0"
             d="m 357.48072,371.55781 c 0.34856,-0.23415 -2.68473,1.20428 -2.04187,0.84474 1.88763,-1.05572 7.7816,-3.72816 5.72954,-3.04494 -2.58609,0.86101 -4.77211,2.69767 -7.34953,3.5843 -4.10773,1.41307 13.93748,-6.81951 2.2173,-1.42149 -1.19797,0.55159 -2.32357,1.30032 -3.5939,1.65478 -0.7847,0.21896 1.41856,-0.80295 2.10627,-1.23969 0.23649,-0.15019 0.42839,-0.3631 0.66171,-0.51817 0.55615,-0.36963 2.36998,-1.00911 1.70371,-1.05391 -0.81247,-0.0546 -6.26067,3.25928 0.37278,-0.58922 -2.1413,-0.89629 0.29001,0.0565 -5.82528,2.51653 0.41391,-0.28547 0.82782,-0.57095 1.24173,-0.85643 0.032,-0.0928 0.19135,-0.30157 0.0959,-0.27851 -1.65096,0.39903 -3.47319,1.71679 0.0782,-0.50832 -0.31217,0.0787 -1.10485,0.5104 -0.93653,0.23597 0.28688,-0.46775 1.88585,-1.08487 1.36035,-0.92696 -1.26197,0.55193 -2.52393,1.10386 -3.7859,1.65579 0.14279,-0.15712 0.63342,-0.5264 0.42837,-0.47136 -0.90601,0.24322 -3.39591,1.56629 -2.60838,1.05659 1.97055,-1.27537 4.12197,-2.24674 6.18295,-3.37012 6.70586,-5.47581 -9.38609,5.49641 -7.64667,3.32802 0.76985,-0.9597 4.3504,-2.25977 3.18514,-1.86496 -2.20957,0.74864 -4.15747,2.14726 -6.3523,2.93806 -0.98989,0.35667 1.96416,-0.87875 2.70647,-1.62445 0.41422,-0.41611 -1.10939,0.38487 -1.66408,0.5773 0.53815,-0.35827 2.22258,-1.29428 1.61446,-1.07482 -1.8113,0.65366 -3.4829,1.64678 -5.25927,2.39016 -0.26071,0.10911 -1.07298,0.30819 -0.83278,0.15926 1.72879,-1.0719 3.60652,-1.88928 5.33987,-2.95378 0.13478,-0.0828 -0.56435,0.0943 -0.47321,-0.035 0.25708,-0.36461 0.71152,-0.5384 1.06728,-0.8076 -0.44257,0.13255 -0.88514,0.26509 -1.32772,0.39763 -1.66799,0.74791 -3.27519,1.64968 -5.00397,2.24373 -1.84906,0.63537 4.18254,-2.30248 2.83883,-1.97125 -2.2476,0.55402 -5.96459,3.02393 -0.98036,-0.0591 0.63836,-0.41453 2.63303,-1.49638 1.91508,-1.2436 -1.87572,0.85018 -3.75143,1.70037 -5.62715,2.55056 0.86579,-0.53128 3.56502,-1.90293 2.59737,-1.59386 -1.99178,0.6362 -3.76356,1.83431 -5.71346,2.58917 -0.3077,0.11913 0.47014,-0.46644 0.73579,-0.66215 0.57542,-0.42393 1.1879,-0.79511 1.78185,-1.19266 -0.73141,0.2696 -2.37701,1.56658 -2.19422,0.80881 0.21818,-0.90443 1.57743,-0.98708 2.35898,-1.49182 0.64757,-0.41822 2.69042,-1.16207 1.92815,-1.2769 -1.01316,-0.15262 -1.89903,0.77027 -2.85567,1.13718 -0.71501,0.27423 -2.6341,1.38642 -2.15874,0.78602 0.71659,-0.9051 1.97332,-1.19869 2.95998,-1.79803 0.45058,-0.32852 1.87801,-1.16997 1.35175,-0.98557 -1.75365,0.78511 -3.50729,1.57023 -5.26093,2.35535 0.0589,-0.13011 0.31328,-0.43229 0.17675,-0.39034 -1.10735,0.34028 -4.10153,2.06743 -3.21349,1.3235 2.80853,-2.35277 7.46851,-3.49619 3.74082,-2.49082 -0.3999,0.10165 -0.81097,0.1666 -1.1997,0.30496 -0.74936,0.26672 -3.18062,1.37936 -4.337,1.58549 -0.12533,0.0223 -0.46685,-0.0481 -0.36233,-0.12077 3.01197,-2.09456 5.16291,-2.488 2.43879,-1.84055 -0.0862,0.0405 -13.39874,6.7653 -6.29686,2.57713 1.72579,-1.01775 4.43512,-1.11844 5.23348,-2.95604 0.71067,-1.63578 -3.22169,1.54151 -4.89133,2.16851 -0.13381,0.0503 0.28652,-0.31521 0.1677,-0.39466 -0.19307,-0.12911 -0.46369,0.0278 -0.69554,0.0417 -3.60238,-0.18937 -9.44128,5.64021 0.62082,-1.25208 0.48159,-0.32988 -1.11623,0.34258 -1.66912,0.5298 -2.57644,0.87241 -1.27377,0.62346 -2.9688,0.87128 0.15176,-0.18365 0.30352,-0.3673 0.45528,-0.55094 0.003,-0.10832 -0.0492,-0.23266 0.008,-0.32494 0.14512,-0.23595 0.83246,-0.68505 0.56634,-0.60815 -1.216,0.35135 -2.26488,1.21079 -3.50632,1.45763 -0.57704,0.11473 1.07874,-0.56678 1.42351,-1.04351 0.13462,-0.18616 -0.45911,0.0183 -0.68867,0.0274 -0.22604,0.007 -0.48774,0.14233 -0.67812,0.0203 -0.11185,-0.0717 0.24369,-0.41075 0.11401,-0.3819 -1.4911,0.33174 -2.8416,1.13716 -4.31136,1.55338 -0.27387,0.0775 -0.61364,0.28349 -0.84566,0.11859 -0.15938,-0.11327 0.22301,-0.32125 0.33452,-0.48187 -4.41257,1.62258 -1.33325,0.63891 1.71365,-1.49436 0.18159,-0.12714 -0.45661,-0.0483 -0.6644,0.0289 -1.29908,0.48271 -2.50766,1.19656 -3.82136,1.63795 -0.16386,0.0551 0.12402,-0.34822 0.26791,-0.44401 1.18067,-0.78605 2.43984,-1.44726 3.65976,-2.17088 -2.92366,0.94155 -0.5989,0.14765 -4.62248,1.74423 -0.80122,0.31793 -1.55925,0.81827 -2.41447,0.92608 -0.37313,0.047 0.72692,-0.37844 0.86014,-0.73014 0.0692,-0.1827 -0.3982,-0.047 -0.58609,0.007 -0.68388,0.19493 -1.33597,0.48778 -2.00396,0.73167 4.74665,-1.26559 -3.60826,1.38041 -2.79511,0.84538 1.50291,-0.98887 3.16599,-1.71617 4.68192,-2.68496 0.0727,-0.0465 -0.0483,-0.25089 -0.13033,-0.22384 -4.42098,1.45853 -1.73257,1.17132 -3.74164,1.33387 -0.85477,0.0747 -1.61596,0.5246 -2.44935,0.67536 -0.11564,0.0209 -0.21799,-0.14476 -0.33233,-0.11765 -0.58964,0.13978 -1.12155,0.7255 -1.71501,0.603 -1.24564,-0.25712 4.56061,-1.91509 -0.50273,-0.30135 0.97742,-0.59505 3.95568,-1.27324 2.93226,-1.78514 -1.13009,-0.56527 -2.31378,1.01643 -3.47553,1.51339 -0.93763,0.40109 -3.66525,1.75485 -2.82244,1.18067 1.92005,-1.30804 8.40196,-3.25917 6.0831,-3.40202 -1.60769,-0.099 -12.02109,6.39256 -4.15364,1.5909 -1.93233,0.90781 -3.86466,1.81561 -5.79699,2.72342 0.87796,-0.54122 3.66482,-1.6532 2.63387,-1.62365 -1.35748,0.0389 -2.36616,1.71435 -3.7229,1.65486 -1.08147,-0.0474 1.86188,-1.10605 2.76906,-1.69668 0.42227,-0.27493 1.69776,-1.04581 1.21608,-0.89789 -1.32771,0.40772 -2.53802,1.12903 -3.80703,1.69354 1.37636,-0.80065 2.76639,-1.57826 4.12909,-2.40195 0.66656,-0.4029 2.67412,-1.58059 1.95694,-1.27678 -2.54907,1.2291 -5.09815,2.4582 -7.64722,3.6873 0.3611,-0.27657 1.53811,-0.83511 1.0833,-0.82971 -1.19384,0.0142 -4.55263,2.41185 -0.16965,-0.46133 0.70029,-0.45215 1.40058,-0.90431 2.10087,-1.35647 -1.33063,0.59801 -5.16361,2.66307 -3.99189,1.79401 1.98047,-1.4689 5.37858,-1.39859 6.45182,-3.61852 0.53335,-1.10321 -9.78446,5.2668 -10.45768,4.85605 -1.2764,-0.77877 2.5739,-1.52244 3.86085,-2.28365 -20.30311,9.42679 4.92471,-2.08907 -0.78856,-0.16347 -2.71444,0.91487 -5.06819,2.70439 -7.74681,3.71935 -1.29403,0.49033 2.39994,-1.38099 3.56132,-2.13341 1.72252,-1.11598 0.85202,-0.75494 -0.0808,-0.53855 5.22226,-3.44058 -2.88143,1.54078 -5.20238,1.81995 -0.091,0.0109 -0.1121,-0.20804 -0.0457,-0.27132 0.42025,-0.40053 0.92265,-0.70645 1.40717,-1.02626 0.91646,-0.60492 1.86223,-1.1642 2.79335,-1.7463 -1.94489,0.90555 -3.88978,1.8111 -5.83467,2.71665 0.67647,-0.45147 2.79723,-1.6225 2.02941,-1.35441 -1.97187,0.6885 -3.76135,1.82144 -5.68654,2.63133 -0.22649,0.0953 -0.91269,0.23814 -0.73386,0.0696 0.63538,-0.5987 3.04105,-1.25481 2.18784,-1.43968 -1.0701,-0.23186 -2.02342,0.8374 -3.03512,1.2561 1.69619,-0.97972 3.39238,-1.95944 5.08857,-2.93916 0.0541,-0.13154 0.29596,-0.44314 0.16227,-0.39461 -1.45093,0.5266 -2.80498,1.2918 -4.23501,1.87278 -0.47418,0.19265 -1.15269,0.84673 -1.46962,0.44484 -0.29504,-0.37415 1.57352,-1.02862 1.11706,-0.89193 -1.40781,0.42159 -2.69277,1.17799 -4.03916,1.76699 1.64917,-0.9555 4.66168,-0.98207 4.94752,-2.86649 0.26557,-1.75085 -3.1322,1.72768 -4.84373,2.18223 -0.8951,0.23772 1.55289,-1.00963 2.32933,-1.51445 -0.98061,0.40469 -1.95253,0.83114 -2.94184,1.21408 -0.57723,0.22343 -1.72611,1.22251 -1.75581,0.60426 -0.0336,-0.6993 1.15163,-0.79647 1.72745,-1.1947 -11.31325,5.15495 -1.52049,0.88037 0.20592,-0.70907 0.97902,-0.90136 -2.40152,1.1629 -3.66143,1.59132 -0.16114,0.0548 0.17672,-0.29094 0.26508,-0.43641 -0.17166,-0.0109 -0.35436,-0.0942 -0.51499,-0.0327 -1.34714,0.51595 -2.63975,1.1643 -3.95963,1.74645 1.27106,-0.75524 2.57819,-1.45285 3.81318,-2.26572 0.16938,-0.11149 0.55768,-0.5534 0.36663,-0.48544 -1.39425,0.496 -2.69289,1.22937 -4.05876,1.79889 -0.62312,0.25981 -2.41985,1.12444 -1.90499,0.68776 1.08833,-0.92307 2.47179,-1.42851 3.67782,-2.1914 0.47287,-0.29911 0.90288,-0.66114 1.35432,-0.99171 -0.26858,0.041 -0.55322,0.0228 -0.80576,0.12302 -1.39712,0.55456 -2.73767,1.24286 -4.12043,1.83234 -0.79801,0.3402 -2.10074,1.76254 -2.42052,0.95612 -0.32602,-0.82215 3.10235,-1.57804 2.22884,-1.43953 -2.40252,0.38097 -5.54475,3.04433 -2.8414,0.87778 -4.45728,1.59976 0.20578,0.0631 1.64065,-1.43325 0.59281,-0.6182 -2.56605,1.77287 -2.39378,0.93388 0.20081,-0.97802 2.55312,-0.60368 2.53093,-1.60186 -0.0203,-0.91215 -1.68893,0.69168 -2.5441,1.00969 -0.52148,0.19392 -1.05615,0.35034 -1.58423,0.52551 -0.62773,0.22617 -2.25399,1.23318 -1.88317,0.67849 0.54426,-0.81414 3.18183,-0.88887 2.48126,-1.57316 -0.74175,-0.7245 -1.91335,0.7998 -2.87429,1.18927 -0.80783,0.3274 -1.62886,0.62219 -2.43185,0.96127 -1.28611,0.5431 -4.33706,2.98727 -3.8344,1.68483 0.57277,-1.4841 2.74414,-1.61001 4.1162,-2.41501 -1.02556,0.4316 -2.37197,2.15587 -3.07669,1.2948 -0.68151,-0.8327 1.84838,-1.10421 2.74156,-1.70429 0.3476,-0.23353 1.36278,-0.95002 0.97477,-0.79252 -11.8082,4.79331 -6.47386,3.96576 -4.66207,1.53539 -1.91345,0.88955 -7.1205,4.26484 -5.74036,2.66865 1.65713,-1.91655 4.47282,-2.38715 6.63661,-3.70521 0.1461,-0.089 -0.35337,-0.0878 -0.51258,-0.0252 -1.4419,0.56676 -2.79922,1.3357 -4.24408,1.89488 -0.10111,0.0391 -0.38138,-0.0738 -0.29432,-0.13845 0.89342,-0.66296 1.89408,-1.16761 2.84112,-1.75141 -2.02579,0.94591 -4.01659,1.97068 -6.07736,2.83772 -0.0797,0.0335 -0.021,-0.18695 -0.085,-0.24497 -0.085,-0.077 -0.39673,-0.0367 -0.32119,-0.12293 0.33956,-0.3876 0.85815,-0.57738 1.2389,-0.9246 0.10905,-0.0994 0.34324,-0.44454 0.2052,-0.39233 -1.51179,0.57175 -2.94857,1.32495 -4.42286,1.98743 0.63439,-1.75674 3.59642,-1.40265 4.57823,-2.92417 0.16729,-0.25925 -0.86238,0.4871 -0.90757,0.18189 -0.0533,-0.36002 1.16549,-0.84966 0.82937,-0.71009 -6.06202,2.51715 -8.54989,4.80029 -5.78884,2.40719 1.34665,-0.78584 2.69331,-1.57169 4.03996,-2.35753 0,0 13.24735,-6.8035 13.24735,-6.8035 l 0,0 c -1.35045,0.7875 -2.70091,1.57499 -4.05137,2.36249 -0.27867,0.23726 -1.1811,0.8337 -0.83601,0.71179 1.50116,-0.53034 2.9033,-1.30758 4.35742,-1.95585 1.32066,-0.58877 2.55287,-1.45304 3.9669,-1.75525 0.80826,-0.17274 -1.36877,0.92853 -2.07874,1.35171 -4.82127,2.87379 -6.71338,3.31806 -3.54987,2.39367 2.17603,-1.02362 4.34253,-2.06774 6.52809,-3.07086 8.78841,-4.03367 0.19166,0.0977 -3.05004,2.14043 -0.57796,0.3642 1.27491,-0.49333 1.92503,-0.70316 4.2268,-1.36424 -4.27649,1.76906 3.21489,-1.07873 -1.32395,0.7774 -2.97629,1.16343 -3.97186,2.3322 -0.72647,0.85285 2.02462,-0.9815 3.09713,-1.30529 0.19768,-0.0597 -0.25596,0.32412 -0.38394,0.48618 -0.0333,0.11311 -0.21437,0.36751 -0.0999,0.33931 0.77615,-0.19116 1.45782,-1.04656 2.23639,-0.86551 0.58527,0.1361 -0.9798,0.69587 -1.4697,1.0438 0.49365,-0.1585 1.00308,-0.27437 1.48095,-0.47551 1.55751,-0.65559 2.93043,-2.00309 4.61797,-2.09165 1.3096,-0.0687 -2.27836,1.30299 -3.37226,2.02628 -0.2322,0.15352 -0.84954,0.68901 -0.58843,0.59254 3.79719,-1.40302 6.61323,-3.43064 2.6282,-0.77466 0.4845,-0.15282 1.07341,-0.79555 1.45352,-0.45848 0.40512,0.35926 -3.89227,2.02916 0.58421,0.28311 1.02321,-0.3991 3.87371,-1.98725 3.03865,-1.27387 -1.98956,1.69966 -9.65626,4.91191 -0.78655,0.99735 1.23544,-0.53574 2.46349,-1.08885 3.70631,-1.60722 0.8028,-0.33485 1.61975,-0.63471 2.42963,-0.95207 -0.24584,0.22576 -1.06846,0.63403 -0.73751,0.67726 0.57799,0.0755 2.14618,-0.87494 1.65758,-0.55708 -4.19344,2.72804 -11.29971,5.83558 -0.43213,0.8074 -1.73742,0.99231 -3.54314,1.8736 -5.21226,2.97692 -0.35004,0.23138 0.81707,-0.19689 1.2137,-0.33381 0.74375,-0.25675 2.53345,-1.56027 2.20369,-0.84589 -0.42176,0.9137 -3.54543,1.78791 -2.55535,1.60771 2.73761,-0.49827 4.91616,-2.79156 7.64264,-3.35784 -9.79959,5.72358 -1.67857,0.78038 0.25441,0.45366 1.098,-0.18559 -3.95068,1.84098 -2.84013,1.75903 1.4417,-0.10638 5.19086,-2.71673 6.97674,-3.01127 0.46937,-0.0774 -0.75063,0.58457 -1.12595,0.87685 -10.90863,6.29816 -1.12582,0.48113 2.75453,-0.82881 1.56832,-0.52944 -3.27418,1.19963 -4.28413,2.5111 -0.77981,1.01262 2.32785,-1.05964 3.5204,-1.51935 0.33603,-0.12954 1.29574,-0.50917 1.05262,-0.24348 -0.56579,0.61834 -1.39865,0.92394 -2.09797,1.38591 -1.99229,2.58028 1.83353,-2.53464 5.71886,-2.34141 1.92941,0.096 -3.39488,1.85202 -5.01693,2.90119 -0.0849,0.0549 0.14144,0.23057 0.23487,0.19193 9.54884,-3.9491 3.05349,-1.83677 7.46884,-3.22283 -2.52703,1.40806 -7.15764,1.36251 -7.5811,4.22418 -0.40392,2.72961 4.93414,-2.48207 7.48058,-3.54488 0.44189,-0.18443 -0.78778,0.55316 -1.12562,0.8925 -0.098,0.0984 -0.0412,0.30223 -0.14989,0.38867 -0.65037,0.51731 -2.90266,1.30268 -2.07538,1.38135 1.11021,0.10556 2.05937,-0.85664 3.08906,-1.28496 3.39523,-0.13167 -6.92924,0.35103 5.87954,-2.42109 1.21724,-0.26344 -2.19014,1.20404 -3.1852,1.95299 -0.1567,0.11795 0.3989,0.0521 0.58839,0.002 0.62943,-0.16806 2.17181,-1.2131 1.84295,-0.65071 -0.47023,0.80416 -1.56557,1.01002 -2.34836,1.51503 0.71067,-0.26818 1.42133,-0.53636 2.132,-0.80454 -0.0662,0.13284 -0.33884,0.44748 -0.19871,0.39852 1.26978,-0.44365 2.45662,-1.09663 3.69555,-1.62027 0.8128,-0.34354 3.1583,-1.51884 2.45881,-0.98091 -1.46123,1.12373 -3.29274,1.68973 -4.78597,2.77057 -0.56022,0.4055 1.29821,-0.47725 1.94731,-0.71587 -5.08133,3.26904 -0.7439,0.32271 2.5863,-0.75069 0.73434,-0.2367 -2.68474,1.14777 -1.92543,1.28461 0.97599,0.1759 1.79675,-0.86145 2.74968,-1.13606 0.15656,-0.0451 -0.41731,0.42912 -0.25482,0.41711 0.53803,-0.0398 1.02364,-0.34118 1.53547,-0.51177 -3.61021,2.76366 1.01666,-0.90337 5.57591,-2.32534 1.47853,-0.46113 -2.68089,1.55199 -4.00625,2.35331 -8.20213,4.95906 7.04061,-3.62367 0.34097,0.65328 0.0916,0.044 0.34724,0.0606 0.27492,0.132 -1.89217,1.86891 -5.08811,1.83661 3.4671,-1.25011 0.55654,-0.2008 -1.0642,0.57398 -1.45209,1.02074 -0.13057,0.15039 0.39764,-0.0235 0.59646,-0.0352 1.80157,-0.83955 3.60313,-1.67909 5.4047,-2.51864 -8.71797,5.23373 2.81222,-1.81667 5.59705,-2.35106 2.67277,-0.51289 -4.78609,2.59374 -7.14276,3.95494 -0.55887,0.3228 -2.20756,1.3051 -1.59782,1.09355 1.66383,-0.57726 3.06198,-1.9285 4.80126,-2.20497 1.25572,-0.1996 -2.18087,1.30785 -3.2713,1.96177 0.41245,-0.12091 1.55622,-0.65095 1.23735,-0.36275 -0.76811,0.69422 -3.63346,1.932 -2.64235,1.6326 1.83399,-0.55404 3.45304,-1.6644 5.21761,-2.41057 0.25056,-0.10595 0.54813,-0.0456 0.8047,-0.13605 3.85151,-1.35766 1.47129,-0.88408 3.5188,-1.239 -5.20973,3.67679 4.71835,-3.46844 3.29786,-1.11923 -1.04474,1.7278 -3.98126,1.43231 -5.26967,2.98691 -1.10307,1.33099 20.81071,-10.95994 -3.30768,2.26595 -1.69608,1.76972 4.44039,-2.07779 6.66058,-3.11669 1.26458,-0.55022 2.50519,-1.15917 3.79373,-1.65065 0.20665,-0.0788 0.45146,-0.11738 0.66172,-0.0488 0.41087,0.13408 -1.27448,2.29228 -0.82268,1.00215 1.60893,-0.14727 2.91896,-1.58547 4.52823,-1.72869 -5.25886,4.38058 -16.77146,7.88878 1.91378,-0.0683 0.96584,-0.4113 -3.19966,1.43706 -2.79249,2.33696 -1.38274,1.41531 -0.55642,0.19905 -0.24282,0.73809 0.0597,0.10268 -0.193,0.37379 -0.077,0.34798 0.77538,-0.17259 2.05169,-1.60126 2.23454,-0.82823 0.19312,0.8165 -1.4023,0.92164 -2.10345,1.38246 2.94358,-1.39442 5.88715,-2.78883 8.83073,-4.18325 -1.35582,0.79548 -2.81924,1.43095 -4.06744,2.38646 -0.43917,0.33619 1.05161,-0.34504 1.58616,-0.48702 0.35489,-0.0943 1.38373,-0.42609 1.07923,-0.22088 -1.58778,1.07002 -3.38988,1.79459 -4.98528,2.85321 -0.23318,0.15473 0.55584,-0.0657 0.83375,-0.0985 1.31784,-0.56033 2.63567,-1.12066 3.9535,-1.68099 0.73744,-0.2665 2.38389,-1.5646 2.21231,-0.7995 -0.20599,0.91851 -3.24408,1.88983 -2.37547,1.52706 12.51272,-5.2259 13.49093,-7.38558 -1.09241,1.19609 -1.20552,0.7094 3.61839,-1.65729 3.96695,-1.36821 10.4844,-4.72898 5.01631,-2.50492 1.6901,-0.22167 -0.13753,0.0944 0.32948,0.0713 0.49619,0.0653 0.28496,-0.0102 0.77746,-0.38992 0.84787,-0.1136 0.0801,0.31453 -0.47062,0.44711 -0.70592,0.67067 1.04536,-0.42572 2.09072,-0.85144 3.13608,-1.27716 1.85342,-0.83469 3.54903,-2.20933 5.56024,-2.50407 1.46505,-0.2147 -2.54728,1.51048 -3.82979,2.25048 -9.72201,5.60953 -3.40031,1.64438 0.72189,0.25161 0.76095,-0.2571 -1.35866,0.85863 -2.01289,1.32461 -0.3354,0.23889 -0.63469,0.5248 -0.95204,0.7872 1.14408,-0.47758 2.27915,-0.97736 3.43224,-1.43273 6.63655,-2.62085 -4.51333,2.10156 -2.65902,1.9544 2.24228,-0.17796 4.08139,-1.89283 6.13977,-2.79979 1.06876,-0.47091 2.26427,-1.97476 3.24016,-1.33318 0.88945,0.58475 -1.81185,1.11774 -2.71778,1.6766 -3.0105,2.2397 -0.68378,0.3643 3.61686,-1.2249 0.21771,-0.0804 -0.33101,0.33161 -0.45188,0.52975 -0.0611,0.10021 0.0196,0.28142 -0.0804,0.34284 -1.78338,1.09496 -3.75954,1.8731 -5.47676,3.06916 -0.67405,0.46948 1.53899,-0.57495 2.30849,-0.86243 1.5258,-0.66899 2.99631,-1.48187 4.57741,-2.00696 0.42491,-0.14111 -0.70089,0.55729 -1.05133,0.83594 -0.11264,0.15865 -0.52728,0.52062 -0.3379,0.47596 1.01845,-0.24016 7.03694,-2.95228 7.00839,-2.92615 -1.65187,1.51125 -3.91427,2.17457 -5.8714,3.26186 1.41104,-0.61242 2.76194,-1.38812 4.23312,-1.83725 0.49997,-0.15264 -0.84164,0.62022 -1.26247,0.93034 -0.0785,0.13709 -0.3898,0.44587 -0.23564,0.41127 0.80608,-0.18088 2.93995,-1.42157 2.31747,-0.87844 -1.69692,1.4806 -12.78082,6.35765 3.1073,-0.99653 2.49447,0.51709 0.0751,-0.0741 -5.15604,3.15099 -0.20177,0.1244 0.47832,-0.017 0.70641,-0.0815 0.60447,-0.17088 1.15888,-0.52195 1.77916,-0.62114 0.13594,-0.0217 -0.12635,0.24463 -0.18953,0.36695 0.68719,-0.25617 1.37438,-0.51234 2.06156,-0.76851 0.86143,-0.34522 1.69463,-1.29977 2.58429,-1.03567 0.73126,0.21708 -2.68008,1.09235 -1.92979,1.22997 0.95027,0.1743 1.78559,-0.7387 2.68502,-1.09144 0.66392,-0.26039 1.38256,-1.09668 2.00453,-0.74776 1.24001,0.69562 -3.36848,1.32153 -0.74678,0.90251 -3.67899,2.62323 1.09748,-0.90155 4.58042,-1.78106 0.80156,-0.2024 -9.0097,4.8961 -7.87829,4.49314 3.85128,-1.37169 18.77853,-9.50436 -1.50422,1.27971 2.34317,-1.09292 4.68633,-2.18584 7.0295,-3.27875 0.47964,-0.15685 0.97088,-0.28186 1.4389,-0.47056 1.19825,-0.48309 4.63463,-2.2534 3.5555,-1.54302 -2.12937,1.40174 -4.50283,2.39251 -6.73009,3.63282 -0.8266,0.46032 -3.34461,1.70759 -2.42935,1.46787 1.55637,-0.40764 2.93333,-1.32268 4.4,-1.98402 0.23466,-0.0397 0.47159,-0.17069 0.70397,-0.11927 0.31766,0.0703 -1.17774,1.40434 -0.60457,0.76621 0.54368,-0.0276 1.03033,-0.35315 1.53624,-0.55415 1.54664,-0.61447 4.06615,-1.73974 5.50636,-2.372 -1.16815,0.65982 -2.34874,1.29808 -3.50445,1.97946 -0.46659,0.2751 -1.86391,1.08836 -1.36038,0.88876 1.68615,-0.66838 6.39802,-3.36843 4.92969,-2.30361 -2.03626,1.47667 -9.05248,2.79166 -6.65591,3.55544 0.53783,0.17141 18.73819,-9.57122 -0.10644,0.39525 4.41395,-1.83144 1.14744,-0.43597 9.62588,-4.57155 1.49934,-0.64632 -5.93191,2.06043 -4.31857,2.31116 1.19159,0.18519 8.69948,-4.77877 1.99079,-0.80814 -0.0797,0.0472 0.18274,-0.0311 0.27411,-0.0466 0,0 -14.20395,7.23727 -14.20395,7.23727 z"
             id="path7638"
             style="fill:#808080" />
        </g>
        <g
           id="g8958">
          <path
             style="fill:#000000;fill-opacity:1;fill-rule:nonzero;stroke:none"
             d="m 516.68885,290.76594 c -1.87696,-7.10427 -9.59934,-10.17231 -16.17815,-11.26872 -6.31549,-1.15329 -12.97794,-0.39706 -18.84973,2.21033 5.17653,-1.82171 10.32545,-3.72041 15.48562,-5.58766 -9.32766,3.21572 -14.64432,12.85471 -16.29163,22.09681 -2.43935,14.45523 0.38573,30.57237 10.38437,41.72198 5.84024,6.22191 14.84142,10.47446 23.41042,8.07416 -3.28259,1.2625 -6.60795,2.47915 -9.94551,3.61642 7.74854,-3.30354 13.63479,-9.95632 17.35954,-17.37741 4.82924,-1.3325 9.65848,-2.66501 14.48772,-3.99751 -4.66366,10.7171 -14.46074,18.84211 -25.68627,21.90418 -7.5953,3.23679 -16.88355,5.09917 -24.35343,0.50651 -12.03864,-6.20778 -18.67676,-19.54229 -20.18249,-32.57752 -1.87595,-12.70439 0.18471,-27.02107 9.36868,-36.61659 5.99036,-5.53141 14.2745,-7.102 21.66076,-9.94092 9.72127,-2.80108 21.00939,-1.30572 29.07108,5.0043 2.21716,1.88961 5.6297,5.55245 2.18246,8.05218 -3.86166,1.65608 -8.06094,2.43554 -11.92344,4.17946 l 0,0 z"
             id="path7566"
             inkscape:connector-curvature="0" />
          <g
             transform="translate(163.22563,66.342173)"
             id="g8830">
            <path
               style="fill:#000000;fill-opacity:1;fill-rule:nonzero;stroke:none"
               id="path7554"
               d="m 240.5302,123.36845 c 0.005,0.28762 0.002,0.5753 -5.2e-4,0.86292 -0.004,0.4019 -0.007,0.80381 -0.009,1.20572 -0.002,0.49361 -0.003,0.98722 -0.004,1.48083 -0.001,0.55258 -0.003,1.10516 -0.004,1.65774 -10e-4,0.60401 -0.002,1.20802 -0.003,1.81203 -0.001,0.64965 -0.002,1.2993 -0.003,1.94894 -9.2e-4,0.69016 -0.002,1.38032 -0.003,2.07047 -8.1e-4,0.72612 -0.002,1.45223 -0.002,2.17834 -7.2e-4,0.75803 -0.001,1.51606 -0.002,2.27409 -6.4e-4,0.78636 -0.001,1.57272 -0.002,2.35908 -5.6e-4,0.8115 -0.001,1.62301 -0.002,2.43452 -4e-4,0.84374 -0.002,1.68747 -0.003,2.53121 -4.9e-4,0.87124 -8.4e-4,1.74249 -0.001,2.61373 -3.5e-4,0.88705 -6.7e-4,1.7741 -9.7e-4,2.66115 -3.1e-4,0.90088 -5.9e-4,1.80177 -8.6e-4,2.70265 -2.8e-4,0.91317 -5.3e-4,1.82633 -7.7e-4,2.73949 -2.4e-4,0.92406 -4.6e-4,1.84813 -6.8e-4,2.77219 -8.6e-4,0.94665 -0.002,1.89331 -0.002,2.83996 2.8e-4,0.96383 -6.5e-4,1.92766 -0.001,2.89149 -0.001,1.006 -0.002,2.012 -0.003,3.01801 1.1e-4,1.03039 -3.2e-4,2.06078 -0.002,3.09117 -0.005,1.05931 7e-5,2.11849 0.0154,3.17768 0.0176,1.07999 0.0349,2.15998 0.0522,3.23998 0.0174,1.08198 0.0336,2.16399 0.0493,3.246 0.0152,1.08711 0.0289,2.17424 0.0427,3.26136 0.0178,1.08233 0.0529,2.16428 0.0819,3.24634 0.0296,1.09539 0.0591,2.19079 0.0852,3.28626 0.0267,1.10303 0.052,2.20608 0.0765,3.30916 0.0242,1.09407 0.0466,2.18818 0.0684,3.28231 0.0215,1.08468 0.0414,2.16939 0.0608,3.25412 0.0191,1.07631 0.0368,2.15265 0.0539,3.229 0.017,1.06889 0.0327,2.1378 0.0479,3.20672 0.0151,1.06229 0.029,2.1246 0.0425,3.18692 0.0134,1.05644 0.0257,2.11289 0.0377,3.16935 0.0119,1.05124 0.0229,2.10249 0.0335,3.15375 0.006,1.04299 0.0213,2.08578 0.0465,3.12847 0.0267,1.04241 0.0537,2.0848 0.0795,3.12723 0.0263,1.04348 0.0493,2.08703 0.0714,3.13061 0.0233,1.06071 0.043,2.12149 0.063,3.18227 0.0223,1.07934 0.035,2.15885 0.0579,3.23816 0.0292,1.12097 0.0645,2.24177 0.0982,3.3626 0.0336,1.14583 0.064,2.29175 0.0941,3.43767 0.0246,1.15813 0.0585,2.31593 0.10164,3.47351 0.0442,1.14739 0.0875,2.29482 0.12935,3.4423 0.0412,1.13249 0.0794,2.26508 0.11656,3.3977 0.0411,1.11534 0.0962,2.23011 0.14705,3.34503 0.0505,1.12168 0.0979,2.24351 0.14192,3.36546 0.0446,1.14372 0.0857,2.28758 0.12616,3.43146 0.0401,1.13602 0.0773,2.27214 0.11355,3.4083 0.0357,1.12203 0.0687,2.24414 0.10086,3.36627 0.0317,1.10948 0.061,2.21903 0.0895,3.3286 0.0324,1.10182 0.0531,2.2038 0.0626,3.30605 0.008,1.0886 0.0125,2.17723 0.0175,3.26585 0.004,1.0784 0.0133,2.15677 0.006,3.23517 -0.0108,1.05459 -0.0259,2.10914 -0.0398,3.1637 -0.004,0.52378 -0.0155,1.04744 -0.028,1.57108 0,0 -14.28774,4.60017 -14.28774,4.60017 l 0,0 c 0.0153,-0.51739 0.0345,-1.03477 0.0364,-1.55245 0.0139,-1.05308 0.0285,-2.10614 0.0428,-3.15922 0.0135,-1.07201 0.0116,-2.1439 0.004,-3.21598 -0.004,-1.08734 -0.009,-2.17468 -0.0149,-3.26202 -0.007,-1.09384 -0.018,-2.18753 -0.0528,-3.28092 -0.0276,-1.10836 -0.056,-2.2167 -0.0866,-3.32498 -0.0311,-1.12082 -0.0631,-2.2416 -0.0976,-3.36231 -0.035,-1.13468 -0.0711,-2.26933 -0.11002,-3.40389 -0.0393,-1.14138 -0.0799,-2.28271 -0.12573,-3.42385 -0.0452,-1.11913 -0.0906,-2.23824 -0.14148,-3.35713 -0.0502,-1.12131 -0.10315,-2.2425 -0.15147,-3.36389 -0.036,-1.13114 -0.073,-2.26224 -0.11295,-3.39324 -0.0406,-1.14694 -0.0825,-2.29383 -0.12646,-3.44064 -0.044,-1.16298 -0.0842,-2.32599 -0.10768,-3.4896 -0.0296,-1.14384 -0.0609,-2.28764 -0.0953,-3.43135 -0.0332,-1.12268 -0.0686,-2.2453 -0.10461,-3.36789 -0.0314,-1.08177 -0.0421,-2.164 -0.0645,-3.24598 -0.0199,-1.05925 -0.0416,-2.11847 -0.0639,-3.17768 -0.0228,-1.04201 -0.0467,-2.08399 -0.0715,-3.12595 -0.0252,-1.04229 -0.0514,-2.08456 -0.0788,-3.12679 -0.0269,-1.04987 -0.0504,-2.09971 -0.0529,-3.14999 -0.0103,-1.05075 -0.0208,-2.1015 -0.0323,-3.15224 -0.0115,-1.05589 -0.0235,-2.11179 -0.0364,-3.16767 -0.013,-1.06169 -0.0264,-2.12338 -0.041,-3.18505 -0.0147,-1.06822 -0.0298,-2.13644 -0.0462,-3.20463 -0.0165,-1.07559 -0.0336,-2.15116 -0.052,-3.22671 -0.0186,-1.08387 -0.0378,-2.16773 -0.0586,-3.25157 -0.021,-1.09318 -0.0427,-2.18635 -0.0661,-3.27949 -0.0237,-1.10179 -0.0479,-2.20357 -0.0751,-3.30528 -0.0277,-1.09385 -0.0544,-2.18774 -0.0851,-3.28151 -0.031,-1.08923 -0.0626,-2.17844 -0.0892,-3.26778 -0.0134,-1.08617 -0.0275,-2.17233 -0.0433,-3.25846 -0.0151,-1.08133 -0.0307,-2.16266 -0.0476,-3.24396 -0.017,-1.07992 -0.0357,-2.15982 -0.0542,-3.23972 -0.018,-1.06629 -0.0326,-2.13253 -0.0256,-3.19902 -0.002,-1.02999 -0.002,-2.05998 -0.002,-3.08998 -3.6e-4,-1.00539 -0.001,-2.01078 -0.003,-3.01617 -7.5e-4,-0.96353 -0.002,-1.92705 -0.001,-2.89058 -2.3e-4,-0.94627 -9.2e-4,-1.89254 -0.002,-2.83881 -2.1e-4,-0.92391 -4.3e-4,-1.84783 -6.7e-4,-2.77174 -2.5e-4,-0.913 -4.9e-4,-1.826 -7.7e-4,-2.739 -2.7e-4,-0.90069 -5.5e-4,-1.80139 -8.6e-4,-2.70209 -3.1e-4,-0.88684 -6.2e-4,-1.77368 -9.7e-4,-2.66052 -3.5e-4,-0.87098 -6.9e-4,-1.74197 -0.001,-2.61295 -5.6e-4,-0.84319 -0.002,-1.68638 -0.003,-2.52957 -4.9e-4,-0.81116 -0.001,-1.62233 -0.002,-2.4335 -5.5e-4,-0.78597 -0.001,-1.57195 -0.002,-2.35793 -6.2e-4,-0.7576 -0.001,-1.5152 -0.002,-2.2728 -6.9e-4,-0.72562 -0.001,-1.45125 -0.002,-2.17688 -7.8e-4,-0.68961 -0.002,-1.37922 -0.003,-2.06883 -8.8e-4,-0.64903 -0.002,-1.29807 -0.003,-1.9471 -9.8e-4,-0.60332 -0.002,-1.20663 -0.003,-1.80995 -0.001,-0.5518 -0.002,-1.10359 -0.004,-1.65539 -10e-4,-0.49264 -0.002,-0.98528 -0.004,-1.47791 -0.002,-0.40006 -0.004,-0.80011 -0.009,-1.20014 -0.002,-0.28752 -0.006,-0.57508 -5.3e-4,-0.86258 0,0 14.36993,-4.66908 14.36993,-4.66908 z"
               inkscape:connector-curvature="0" />
            <path
               style="fill:#000000;fill-opacity:1;fill-rule:nonzero;stroke:none"
               id="path7560"
               d="m 260.39221,233.15214 c 0.26942,-0.0165 0.53934,-0.0239 0.80908,-0.0336 0.33475,-0.0121 0.66955,-0.023 1.00436,-0.0333 0.40966,-0.0126 0.81936,-0.0233 1.22908,-0.0335 0.47683,-0.0118 0.9537,-0.0218 1.43057,-0.0314 0.54005,-0.0217 1.07893,-0.0149 1.61875,6.8e-4 0.59835,0.009 1.19324,0.0796 1.78939,0.12593 0.64881,0.0806 1.29591,0.17822 1.93845,0.2993 0.69508,0.14999 1.38497,0.32555 2.06757,0.52473 0.72613,0.19466 1.43765,0.43838 2.15237,0.67022 0.74428,0.2464 1.47143,0.53731 2.19527,0.83749 0.74468,0.32243 1.48478,0.65552 2.2104,1.01906 0.74144,0.3579 1.47311,0.73657 2.18889,1.14341 0.72394,0.38803 1.41728,0.82892 2.1071,1.27378 0.70931,0.46263 1.39109,0.96472 2.06631,1.4752 0.6723,0.52356 1.33418,1.05971 1.97422,1.62232 0.63275,0.5599 1.25723,1.12856 1.85986,1.72085 0.60395,0.59634 1.17833,1.22063 1.7341,1.86179 0.55402,0.6423 1.06648,1.31834 1.56322,2.00538 0.49374,0.68633 0.94776,1.39965 1.38731,2.12149 0.43812,0.72438 0.8421,1.46849 1.2279,2.22179 0.374,0.73566 0.71032,1.48925 1.02376,2.25241 0.30684,0.74136 0.55737,1.50329 0.78489,2.2721 0.22268,0.75584 0.38872,1.5262 0.53609,2.2997 0.14044,0.7375 0.22303,1.48391 0.28885,2.23119 0.0566,0.70958 0.0661,1.42171 0.0525,2.13306 -0.0104,0.69579 -0.10707,1.38454 -0.21698,2.07021 -0.10737,0.67127 -0.27983,1.32884 -0.4831,1.97672 -0.20549,0.63639 -0.47772,1.24695 -0.7695,1.84759 -0.29469,0.58893 -0.64262,1.14962 -0.99742,1.7038 -0.3557,0.55431 -0.76479,1.07042 -1.19316,1.56961 -0.43689,0.49988 -0.91831,0.95844 -1.40523,1.40887 -0.50138,0.46197 -1.0382,0.88234 -1.5862,1.28699 -0.56209,0.41213 -1.15214,0.78334 -1.75018,1.14045 -0.61603,0.36543 -1.25291,0.69338 -1.89562,1.00882 -0.66311,0.32345 -1.3416,0.61341 -2.02436,0.89238 -5.31741,2.0924 -10.70512,4.00694 -16.11402,5.84883 -0.74799,0.24976 -1.50268,0.47908 -2.26302,0.6881 -0.7951,0.21906 -1.59525,0.41895 -2.39708,0.61165 -0.82069,0.19638 -1.64559,0.37433 -2.47172,0.54615 -0.84224,0.17443 -1.68769,0.33266 -2.53407,0.4855 -0.86129,0.15488 -1.72502,0.29556 -2.58948,0.43148 -0.88182,0.13938 -1.76592,0.26316 -2.65077,0.38145 -0.9233,0.12217 -1.84826,0.23138 -2.77342,0.33837 -0.94015,0.10836 -1.88132,0.20747 -2.82281,0.30339 -0.9482,0.0962 -1.8972,0.18427 -2.84644,0.26948 -0.9552,0.0854 -1.91103,0.16361 -2.86705,0.23929 -0.96141,0.0758 -1.92332,0.14525 -2.88536,0.21247 -0.96782,0.0758 -1.93824,0.10638 -2.90798,0.14715 -0.97181,0.0409 -1.94376,0.0787 -2.91575,0.11524 -0.97598,0.0366 -1.95207,0.0701 -2.9282,0.10252 -0.81628,0.027 -1.63262,0.0521 -2.44898,0.0766 0,0 13.35943,-6.85908 13.35943,-6.85908 l 0,0 c 0.81573,-0.026 1.63143,-0.0525 2.44707,-0.0812 0.97526,-0.0344 1.95048,-0.07 2.92558,-0.10881 0.97071,-0.0388 1.94139,-0.0786 2.91181,-0.12424 0.96429,-0.0469 1.92763,-0.10621 2.89005,-0.18294 0.96009,-0.0713 1.92001,-0.14502 2.87938,-0.22557 0.95378,-0.0804 1.90734,-0.16339 2.8602,-0.25419 0.94667,-0.0905 1.89307,-0.1841 2.83856,-0.28647 0.93856,-0.102 1.87677,-0.20739 2.81378,-0.32295 0.92219,-0.11428 1.84395,-0.23233 2.76338,-0.36725 0.8807,-0.1293 1.76036,-0.26573 2.63815,-0.41349 0.85968,-0.14604 1.7185,-0.29727 2.57441,-0.4641 0.84078,-0.16459 1.68043,-0.3351 2.51625,-0.52345 0.81951,-0.18551 1.63756,-0.37777 2.45049,-0.59052 0.79402,-0.20884 1.58644,-0.42449 2.3704,-0.66881 0.74855,-0.23857 1.49509,-0.48346 2.23458,-0.74907 6.99474,-2.45665 -18.21306,6.56606 -11.82529,4.3248 0.68621,-0.24955 1.36912,-0.50868 2.04004,-0.79726 0.64704,-0.27993 1.28962,-0.57071 1.91603,-0.89471 0.60357,-0.31417 1.20109,-0.6406 1.77674,-1.00403 0.55541,-0.35311 1.10261,-0.71991 1.61994,-1.12755 0.49803,-0.39603 0.97595,-0.81513 1.43954,-1.25101 0.44167,-0.42818 0.86862,-0.8724 1.24589,-1.35938 0.3762,-0.4917 0.71389,-1.00869 1.04343,-1.53253 0.31155,-0.52499 0.59834,-1.06574 0.8287,-1.63182 0.23098,-0.56551 0.42865,-1.14377 0.55562,-1.74245 0.12763,-0.61542 0.23939,-1.23616 0.28464,-1.86379 0.0368,-0.65711 0.0366,-1.31525 0.004,-1.9727 -0.0446,-0.6962 -0.11471,-1.39122 -0.23038,-2.07949 -0.13205,-0.72481 -0.27801,-1.44735 -0.4824,-2.15586 -0.21095,-0.7203 -0.44347,-1.43409 -0.73164,-2.12782 -0.29536,-0.72399 -0.61656,-1.43707 -0.97381,-2.13286 -0.37045,-0.71847 -0.762,-1.42608 -1.18584,-2.11464 -0.42477,-0.68418 -0.86394,-1.35976 -1.34293,-2.0076 -0.4798,-0.64543 -0.97527,-1.27959 -1.51191,-1.87919 -0.54186,-0.60259 -1.10093,-1.18954 -1.68781,-1.74871 -0.59564,-0.5613 -1.20378,-1.10951 -1.82609,-1.64115 -0.62925,-0.52586 -1.27003,-1.03856 -1.93076,-1.52447 -0.65919,-0.4785 -1.32871,-0.9432 -2.02333,-1.36926 -0.67832,-0.41628 -1.36701,-0.81469 -2.07036,-1.18742 -0.71129,-0.37119 -1.42838,-0.73094 -2.15565,-1.06995 -0.71622,-0.32517 -1.43585,-0.6443 -2.17096,-0.92477 -0.71068,-0.26925 -1.42744,-0.52178 -2.1552,-0.74154 -0.70161,-0.22004 -1.40882,-0.42122 -2.12281,-0.59737 -0.6644,-0.15432 -1.3306,-0.30571 -2.00889,-0.38598 -0.62688,-0.0795 -1.25438,-0.16032 -1.88678,-0.17904 -0.58381,-0.0364 -1.16791,-0.0489 -1.75283,-0.0376 -0.53493,0.008 -1.06956,0.0366 -1.60463,0.0442 -0.47791,0.0133 -0.95581,0.0274 -1.4336,0.0448 -0.41024,0.0152 -0.82046,0.0314 -1.23045,0.0525 -0.33388,0.0176 -0.66775,0.0363 -1.00099,0.0637 -0.26107,0.0225 -0.52166,0.0494 -0.78123,0.0855 0,0 13.39577,-6.99452 13.39577,-6.99452 z"
               inkscape:connector-curvature="0" />
            <path
               style="fill:#000000;fill-opacity:1;fill-rule:nonzero;stroke:none"
               id="path7568"
               d="m 162.41212,165.55127 c 0.45819,0.007 0.91642,0.01 1.37464,0.0134 0.8778,0.005 1.7556,0.009 2.63341,0.0122 1.21189,0.0149 2.4235,-0.005 3.63525,-0.0208 1.41297,-0.0174 2.82597,-0.0325 4.23898,-0.0469 1.56267,-0.0187 3.12506,-0.058 4.68756,-0.0885 1.70722,-0.033 3.41454,-0.0611 5.12187,-0.088 1.8534,-0.0292 3.70687,-0.0538 5.56033,-0.0787 1.95426,-0.0424 3.90853,-0.0843 5.86283,-0.12493 2.00096,-0.0418 4.00202,-0.0784 6.00306,-0.11544 2.00061,-0.037 4.00126,-0.0705 6.00192,-0.1046 1.94128,-0.0322 3.88257,-0.064 5.82387,-0.095 1.86826,-0.0298 3.73656,-0.057 5.60488,-0.083 1.83745,-0.0262 3.67493,-0.0501 5.51242,-0.0735 1.81282,-0.0243 3.62531,-0.0704 5.43785,-0.11025 1.78013,-0.0386 3.56029,-0.0751 5.3405,-0.10952 1.75743,-0.0343 3.5149,-0.0666 5.2724,-0.0974 1.73907,-0.0303 3.47817,-0.0585 5.21728,-0.0864 1.72603,-0.027 3.45208,-0.0521 5.17815,-0.0759 1.73664,-0.0237 3.47331,-0.0455 5.20998,-0.0673 1.71117,-0.0206 3.42233,-0.042 5.13351,-0.0615 1.6956,-0.0186 3.39122,-0.0362 5.08684,-0.0527 1.67591,-0.0171 3.35184,-0.0329 5.02776,-0.0487 1.61615,-0.0153 3.2323,-0.0299 4.84845,-0.0443 1.57124,-0.0142 3.14251,-0.0257 4.71377,-0.0376 1.55322,-0.0117 3.10646,-0.023 4.65969,-0.0342 1.51922,-0.0104 3.03844,-0.0204 4.55767,-0.0301 1.48928,-0.01 2.97857,-0.0182 4.46785,-0.027 1.44565,-0.009 2.89131,-0.0168 4.33696,-0.0247 1.4064,-0.008 2.8128,-0.0144 4.2192,-0.0214 1.37113,-0.007 2.74226,-0.0132 4.1134,-0.0195 1.32974,-9.4e-4 2.65918,-0.0116 3.98865,-0.0368 1.29445,-0.0246 2.58893,-0.0476 3.88342,-0.0701 0,0 -13.33209,6.82215 -13.33209,6.82215 l 0,0 c -1.2936,0.0223 -2.58718,0.0463 -3.88084,0.0649 -1.33034,0.0147 -2.66081,0.0126 -3.99121,0.0202 -1.36933,0.006 -2.73865,0.0113 -4.10798,0.0174 -1.40512,0.006 -2.81023,0.0134 -4.21535,0.0202 -1.44347,0.007 -2.88694,0.0144 -4.33041,0.0221 -1.48781,0.008 -2.9756,0.0168 -4.4634,0.0257 -1.51804,0.009 -3.03607,0.0189 -4.5541,0.0294 -1.55155,0.0103 -3.10311,0.0209 -4.65466,0.0328 -1.57044,0.012 -3.14086,0.0252 -4.71129,0.0379 -1.61315,0.0131 -3.2263,0.0265 -4.83944,0.0408 -1.67391,0.0149 -3.34781,0.0306 -5.0217,0.0471 -1.69578,0.0176 -3.39156,0.0353 -5.08732,0.0552 -1.70907,0.0196 -3.41816,0.0383 -5.12721,0.0601 -1.73647,0.0217 -3.47292,0.0446 -5.20935,0.0697 -1.72577,0.0251 -3.45153,0.0507 -5.17726,0.0785 -1.73789,0.0276 -3.47576,0.0564 -5.21359,0.0875 -1.756,0.0316 -3.51199,0.0636 -5.26792,0.0984 -1.77878,0.0357 -3.55755,0.072 -5.33628,0.11039 -1.81332,0.0382 -3.62662,0.0794 -5.4403,0.0968 -1.83585,0.0234 -3.67169,0.0478 -5.50751,0.0733 -1.86637,0.0267 -3.73273,0.054 -5.59907,0.0824 -1.93755,0.0293 -3.87509,0.0589 -5.81259,0.0913 -1.99911,0.0331 -3.99819,0.0679 -5.99722,0.10531 -2.00176,0.0375 -4.00347,0.0777 -6.00513,0.12068 -1.9589,0.0421 -3.91772,0.0897 -5.87684,0.12034 -1.85818,0.0275 -3.71633,0.0571 -5.5744,0.0908 -1.71277,0.0315 -3.42551,0.0646 -5.13816,0.10228 -1.57003,0.034 -3.14005,0.0709 -4.71043,0.0851 -1.41991,0.0186 -2.8398,0.0385 -4.25968,0.0595 -1.22541,0.0156 -2.45082,0.0173 -3.67631,0.0202 -0.89376,0.003 -1.78751,0.007 -2.68126,0.0122 -0.47581,0.004 -0.95162,0.007 -1.42739,0.0134 0,0 13.47334,-6.86502 13.47334,-6.86502 z"
               inkscape:connector-curvature="0" />
            <path
               style="fill:#000000"
               id="path7681"
               d="m 240.10631,204.25137 c 0.37494,-0.0742 0.75475,-0.12014 1.12857,-0.20041 0.54742,-0.10851 1.10043,-0.18579 1.65243,-0.26665 0.63724,-0.0926 1.27667,-0.16901 1.91625,-0.24331 0.7172,-0.0802 1.43522,-0.15231 2.15364,-0.22047 0.79113,-0.0723 1.58302,-0.13586 2.37496,-0.19859 0.84,-0.0655 1.68058,-0.12344 2.5212,-0.18038 0.87187,-0.0693 1.74566,-0.0981 2.61941,-0.13049 0.87878,-0.0394 1.7576,-0.0626 2.63711,-0.0719 0.87623,0.003 1.75154,0.0337 2.6272,0.0609 0.85899,0.0433 1.7173,0.0924 2.57331,0.17689 0.84513,0.0773 1.68735,0.1862 2.52563,0.31808 0.83408,0.14268 1.66127,0.31909 2.47945,0.53469 0.79978,0.19632 1.58961,0.4274 2.36661,0.69996 0.74711,0.265 1.4651,0.60099 2.16858,0.96436 0.69309,0.35163 1.33179,0.79289 1.94268,1.27046 0.60128,0.46609 1.1385,1.00359 1.64014,1.57355 0.47683,0.55238 0.87387,1.16383 1.24378,1.79078 0.35206,0.59716 0.64404,1.22572 0.90011,1.86906 0.24638,0.63873 0.42394,1.29952 0.579,1.9653 0.14571,0.63491 0.24293,1.27906 0.32309,1.92504 0.0837,0.64586 0.10459,1.29585 0.0914,1.9462 -0.0196,0.66015 -0.10814,1.31508 -0.20153,1.96799 -0.0964,0.66764 -0.25286,1.32375 -0.43769,1.9718 -0.18973,0.64499 -0.43051,1.27392 -0.69048,1.89349 -0.25857,0.62534 -0.57694,1.22239 -0.91732,1.80631 -0.33782,0.593 -0.73528,1.14776 -1.13078,1.70283 -0.39795,0.55016 -0.83503,1.07103 -1.27543,1.58746 -0.43743,0.52369 -0.93339,0.99105 -1.42742,1.45962 -0.49667,0.47803 -1.01764,0.92944 -1.5606,1.35389 -0.55475,0.44399 -1.13117,0.85916 -1.71872,1.25832 -0.60406,0.38448 -1.19868,0.78309 -1.81764,1.14351 -0.62151,0.3811 -1.2515,0.74751 -1.89092,1.09763 -0.65632,0.35766 -1.33021,0.68115 -2.00925,0.99293 -0.35106,0.16435 -0.70941,0.31214 -1.06747,0.46031 0,0 -14.74548,2.90243 -14.74548,2.90243 l 0,0 c 0.3591,-0.13225 0.71803,-0.26498 1.07449,-0.40424 0.68291,-0.28052 1.36179,-0.57131 2.02638,-0.89331 0.64663,-0.31517 1.28869,-0.64099 1.90721,-1.00905 0.60653,-0.36954 1.24087,-0.69368 1.82613,-1.09824 0.59521,-0.3555 1.18351,-0.72356 1.74299,-1.13379 0.5356,-0.39946 1.08551,-0.78125 1.58797,-1.22327 0.49321,-0.43476 0.98582,-0.87132 1.45787,-1.32916 0.45811,-0.46562 0.88368,-0.95923 1.30832,-1.45524 0.40982,-0.50361 0.79425,-1.02798 1.16745,-1.55912 0.34291,-0.52694 0.68413,-1.0567 0.96605,-1.61962 0.27287,-0.56262 0.5229,-1.13483 0.73972,-1.72163 0.20064,-0.57813 0.38398,-1.16294 0.49587,-1.76576 0.1109,-0.59407 0.19823,-1.19301 0.25487,-1.79475 0.0386,-0.57553 0.0477,-1.15309 -0.0212,-1.72714 -0.0576,-0.59395 -0.14055,-1.1858 -0.26591,-1.76954 -0.12693,-0.5902 -0.27832,-1.17558 -0.49587,-1.73977 -0.22826,-0.56734 -0.49419,-1.11849 -0.81132,-1.64208 -0.33026,-0.53496 -0.68964,-1.05299 -1.12568,-1.50858 -0.46797,-0.47893 -0.96975,-0.92381 -1.5219,-1.30464 -0.5815,-0.39028 -1.18958,-0.7375 -1.82998,-1.02289 -0.67564,-0.30052 -1.36401,-0.57251 -2.07493,-0.77887 -0.76409,-0.22152 -1.53474,-0.41999 -2.31099,-0.59435 -0.8,-0.16502 -1.60435,-0.31251 -2.41589,-0.40849 -0.82647,-0.0977 -1.65381,-0.18813 -2.48466,-0.24026 -0.84459,-0.0492 -1.68972,-0.0945 -2.53577,-0.1087 -0.86476,-0.0194 -1.73017,-0.0262 -2.59487,6.2e-4 -0.87391,0.025 -1.74732,0.0668 -2.62083,0.10306 -0.86851,0.0425 -1.73569,0.10469 -2.60286,0.16864 -0.83977,0.0619 -1.67936,0.12616 -2.51817,0.20004 -0.79117,0.0692 -1.58211,0.14142 -2.37155,0.22844 -0.71642,0.0784 -1.43253,0.16069 -2.14655,0.25886 -0.63597,0.0881 -1.27111,0.18255 -1.90338,0.29451 -0.54935,0.0977 -1.09618,0.20756 -1.64162,0.3251 -0.38194,0.0717 -0.75864,0.16967 -1.13062,0.28149 0,0 13.29544,-7.1899 13.29544,-7.1899 z"
               inkscape:connector-curvature="0" />
          </g>
          <g
             transform="matrix(0.97393434,0.06184452,-0.06239051,0.9654114,178.0489,59.904955)"
             id="g8783">
            <path
               style="fill:#000000;stroke:none"
               id="path8765"
               d="m 133.06336,205.3857 c 0.10758,0.27267 0.22455,0.5414 0.33899,0.81122 0.16002,0.39906 0.33157,0.79331 0.49182,1.19228 0.20174,0.48322 0.40193,0.96686 0.60063,1.45138 0.24945,0.56823 0.47992,1.14443 0.71107,1.72026 0.24898,0.64469 0.51091,1.28424 0.76191,1.92813 0.28374,0.71051 0.54845,1.42846 0.82958,2.13998 0.29467,0.7381 0.56315,1.48616 0.8419,2.23034 0.29,0.72551 0.56717,1.45595 0.85196,2.1835 0.29081,0.75409 0.58386,1.50731 0.86516,2.26502 0.30752,0.80445 0.59838,1.61503 0.89823,2.42234 0.29947,0.80859 0.60573,1.61459 0.90218,2.42433 0.30217,0.85245 0.62032,1.69909 0.92877,2.54927 0.32262,0.90365 0.65308,1.80447 0.97956,2.70674 0.35669,0.97177 0.69201,1.95115 1.03861,2.92651 0.35062,1.00052 0.7064,1.99916 1.06619,2.99642 0.36304,1.01699 0.72575,2.03409 1.08932,3.0509 0.40004,1.11904 0.78819,2.24202 1.17264,3.36649 0.42743,1.28559 0.89352,2.55784 1.34611,3.83467 0.47579,1.31653 0.94001,2.63723 1.39885,3.95975 0.44219,1.30925 0.89572,2.61463 1.34367,3.92193 0.44642,1.32411 0.88262,2.65167 1.30662,3.98313 0.39944,1.28629 0.79127,2.57501 1.1766,3.86561 0.37036,1.23924 0.72722,2.48251 1.09663,3.72202 0.3612,1.17439 0.68539,2.35954 1.02503,3.54018 0.31415,1.11363 0.65162,2.22042 0.97409,3.33163 0.29957,1.0622 0.59658,2.12518 0.91039,3.18328 0.30386,1.01494 0.59485,2.03364 0.90233,3.0475 0.30577,1.01481 0.62221,2.02635 0.92502,3.04205 0.30487,0.97817 0.60005,1.95924 0.90582,2.93713 0.23929,0.79301 0.4901,1.58243 0.73591,2.37344 0,0 -13.96292,5.00535 -13.96292,5.00535 l 0,0 c -0.24427,-0.79077 -0.49294,-1.58015 -0.73071,-2.37291 -0.3056,-0.98479 -0.60057,-1.97278 -0.90503,-2.95793 -0.30028,-1.01318 -0.61649,-2.02148 -0.92107,-3.03336 -0.31054,-1.01741 -0.60218,-2.04034 -0.90365,-3.06045 -0.31156,-1.06194 -0.60716,-2.12846 -0.90434,-3.19449 -0.31985,-1.1136 -0.65429,-2.22295 -0.96521,-3.33912 -0.33426,-1.17763 -0.65409,-2.35942 -1.00971,-3.53093 -0.36445,-1.24046 -0.71895,-2.48384 -1.08697,-3.72327 -0.38017,-1.28316 -0.76607,-2.5647 -1.15791,-3.84433 -0.41687,-1.32169 -0.84971,-2.63824 -1.29465,-3.95075 -0.44806,-1.30599 -0.90208,-2.60994 -1.34188,-3.91874 -0.45415,-1.31933 -0.91749,-2.63554 -1.39252,-3.9475 -0.45736,-1.27915 -0.9298,-2.553 -1.3703,-3.83809 -0.39327,-1.11513 -0.7935,-2.22766 -1.19321,-3.34048 -0.36887,-1.01479 -0.73257,-2.03146 -1.09582,-3.04826 -0.3603,-0.99894 -0.71782,-1.99883 -1.06902,-3.00101 -0.34788,-0.97165 -0.68508,-1.94718 -1.04656,-2.91391 -0.32944,-0.90135 -0.66381,-1.80089 -0.99132,-2.70294 -0.30847,-0.84781 -0.62826,-1.69146 -0.93192,-2.54103 -0.29935,-0.8074 -0.60873,-1.61106 -0.90426,-2.41986 -0.29863,-0.80556 -0.5872,-1.61487 -0.90056,-2.4149 -0.28509,-0.74912 -0.57598,-1.49599 -0.8661,-2.24318 -0.2874,-0.73432 -0.56772,-1.47136 -0.85828,-2.20445 -0.27579,-0.73635 -0.54129,-1.47661 -0.83428,-2.2064 -0.27997,-0.71274 -0.55206,-1.4286 -0.84142,-2.13765 -0.25204,-0.6377 -0.5157,-1.27073 -0.76673,-1.90884 -0.23338,-0.57027 -0.46705,-1.14049 -0.71945,-1.7027 -0.20454,-0.48518 -0.41269,-0.96872 -0.619,-1.45315 -0.16153,-0.38607 -0.33344,-0.76767 -0.4976,-1.15264 -0.12734,-0.28188 -0.25553,-0.5634 -0.37653,-0.84809 0,0 14.04334,-5.16142 14.04334,-5.16142 z"
               inkscape:connector-curvature="0" />
            <path
               style="fill:#000000;stroke:none"
               id="path8771"
               d="m 222.63204,203.24883 c -0.0505,0.28879 -0.0753,0.58065 -0.11148,0.87147 -0.0833,0.39424 -0.15341,0.79114 -0.23401,1.18587 -0.0958,0.47831 -0.19635,0.955 -0.30478,1.43064 -0.12688,0.53825 -0.21648,1.08402 -0.32153,1.62663 -0.12774,0.61999 -0.23331,1.24414 -0.34846,1.86649 -0.14177,0.72572 -0.25778,1.45588 -0.36982,2.18665 -0.14006,0.84757 -0.26126,1.69804 -0.3928,2.54694 -0.14564,0.91059 -0.27647,1.82335 -0.39821,2.73741 -0.11608,0.94688 -0.24382,1.89219 -0.37209,2.83747 -0.13055,0.95855 -0.24347,1.91934 -0.37001,2.8784 -0.13384,1.02003 -0.26796,2.03999 -0.40446,3.05967 -0.14645,1.11445 -0.30279,2.22753 -0.44916,3.34199 -0.14242,1.16023 -0.30385,2.31798 -0.45305,3.47734 -0.14341,1.17417 -0.29528,2.34725 -0.44817,3.52023 -0.14992,1.19466 -0.31094,2.38793 -0.47259,3.58106 -0.16812,1.20549 -0.34165,2.41014 -0.52012,3.61414 -0.1736,1.22335 -0.35743,2.44518 -0.53678,3.66769 -0.17699,1.24458 -0.36735,2.48718 -0.54507,3.73165 -0.16829,1.22894 -0.35543,2.45517 -0.533,3.68278 -0.17271,1.18441 -0.3207,2.3722 -0.4889,3.55722 -0.16189,1.13854 -0.32627,2.27664 -0.49943,3.41352 -0.165,1.11589 -0.35132,2.22843 -0.52722,3.34262 -0.16087,1.08353 -0.33435,2.165 -0.50933,3.24632 -0.17145,1.07788 -0.33432,2.15708 -0.5027,3.23544 -0.16469,1.09684 -0.34829,2.19068 -0.52183,3.28613 -0.17475,1.08146 -0.35918,2.16129 -0.53181,3.2431 -0.17345,1.06837 -0.35614,2.13519 -0.52706,3.20399 -0.16759,1.03788 -0.34818,2.07362 -0.52257,3.11039 -0.18001,0.99711 -0.35854,1.99443 -0.52638,2.99367 -0.0793,0.49382 -0.16961,0.98578 -0.25806,1.47803 0,0 -14.18488,4.33175 -14.18488,4.33175 l 0,0 c 0.0874,-0.48671 0.17533,-0.97332 0.26772,-1.45911 0.16331,-1.00599 0.33444,-2.01072 0.52392,-3.01216 0.19278,-1.02598 0.34526,-2.05919 0.53853,-3.08519 0.16684,-1.06965 0.34198,-2.13796 0.52914,-3.20426 0.16869,-1.08246 0.34576,-2.16357 0.53445,-3.24273 0.17022,-1.09508 0.35602,-2.18761 0.52419,-3.28295 0.1649,-1.08104 0.33336,-2.16143 0.49445,-3.24304 0.17319,-1.08069 0.36334,-2.15859 0.51801,-3.24217 0.17281,-1.11348 0.36116,-2.22444 0.53211,-3.33816 0.17341,-1.13446 0.34925,-2.26842 0.50753,-3.40513 0.1764,-1.1847 0.33435,-2.37172 0.49835,-3.55821 0.1763,-1.22763 0.36734,-2.45308 0.5398,-3.68124 0.17523,-1.24591 0.36394,-2.48979 0.54049,-3.73547 0.17576,-1.22357 0.36721,-2.44477 0.5327,-3.6698 0.17602,-1.20086 0.35753,-2.40082 0.5201,-3.60362 0.17256,-1.18547 0.32155,-2.37447 0.47629,-3.56234 0.1461,-1.17345 0.31045,-2.34452 0.4455,-3.51934 0.14613,-1.15911 0.30495,-2.31652 0.45032,-3.47568 0.13656,-1.11565 0.29179,-2.22878 0.43258,-3.34385 0.13146,-1.0188 0.26447,-2.03732 0.39106,-3.05673 0.12714,-0.95917 0.2418,-1.91978 0.36451,-2.87953 0.12504,-0.94352 0.26365,-1.8852 0.3719,-2.83086 0.11689,-0.92426 0.23639,-1.84831 0.37985,-2.7689 0.13003,-0.84726 0.2481,-1.69613 0.37639,-2.54364 0.11635,-0.73869 0.20377,-1.48188 0.33871,-2.21768 0.1122,-0.62562 0.21611,-1.25251 0.32925,-1.87797 0.10639,-0.5488 0.20244,-1.09894 0.30084,-1.64928 0.0941,-0.47344 0.21616,-0.93982 0.29728,-1.41561 0.079,-0.38572 0.14884,-0.77221 0.22246,-1.15905 0.0726,-0.25787 0.10465,-0.52031 0.11546,-0.78784 0,0 14.29187,-4.43516 14.29187,-4.43516 z"
               inkscape:connector-curvature="0" />
            <path
               style="fill:#000000;stroke:none"
               id="path8773"
               d="m 184.6629,242.00617 c -0.16024,0.26705 -0.2877,0.55192 -0.44249,0.82178 -0.20496,0.34343 -0.37393,0.7055 -0.5722,1.05289 -0.21147,0.41214 -0.42548,0.82318 -0.65018,1.22848 -0.2435,0.47383 -0.48063,0.95056 -0.73559,1.41845 -0.28217,0.52252 -0.54128,1.05673 -0.81827,1.58201 -0.29061,0.59128 -0.60857,1.16822 -0.8958,1.76116 -0.30393,0.65142 -0.6352,1.28911 -0.95294,1.9337 -0.34423,0.67014 -0.69215,1.33833 -1.04519,2.00387 -0.3831,0.74385 -0.77198,1.48461 -1.16202,2.22483 -0.42645,0.78269 -0.83354,1.57513 -1.23269,2.37198 -0.4376,0.85044 -0.86183,1.70761 -1.29479,2.56039 -0.46317,0.89572 -0.90222,1.80334 -1.33699,2.71309 -0.44833,0.92568 -0.88803,1.85542 -1.32609,2.78598 -0.43744,0.9399 -0.88447,1.87531 -1.31615,2.81788 -0.41611,0.92386 -0.83272,1.8475 -1.25438,2.76884 -0.42193,0.90908 -0.83104,1.82422 -1.23527,2.74132 -0.38714,0.8943 -0.77736,1.78726 -1.17121,2.67862 -0.38201,0.85865 -0.75431,1.72151 -1.13122,2.58238 -0.3811,0.84667 -0.7432,1.70151 -1.11147,2.55375 -0.36436,0.84484 -0.71749,1.69461 -1.06048,2.54834 -0.3511,0.83648 -0.68449,1.68014 -1.02619,2.52046 -0.33603,0.82168 -0.66469,1.64636 -0.99885,2.46879 -0.16449,0.4047 -0.32529,0.81075 -0.49151,1.21474 0,0 -14.29393,4.0346 -14.29393,4.0346 l 0,0 c 0.1658,-0.40247 0.34238,-0.80041 0.49536,-1.20805 0.33303,-0.82153 0.65675,-1.64681 1.00483,-2.46216 0.33362,-0.84969 0.68465,-1.69235 1.02402,-2.53975 0.36406,-0.85085 0.69372,-1.71622 1.05507,-2.56832 0.36756,-0.85483 0.72679,-1.71327 1.11052,-2.56104 0.37578,-0.86203 0.74324,-1.72776 1.13717,-2.58174 0.38385,-0.89589 0.78591,-1.78383 1.17888,-2.67572 0.39384,-0.93353 0.81882,-1.85283 1.22418,-2.7813 0.43098,-0.91295 0.84207,-1.83466 1.26607,-2.75081 0.4185,-0.95452 0.86245,-1.89718 1.30965,-2.83854 0.4323,-0.9382 0.87309,-1.87237 1.31967,-2.80384 0.44198,-0.9116 0.86005,-1.83499 1.32297,-2.73621 0.42646,-0.85528 0.85704,-1.70829 1.28334,-2.56361 0.41079,-0.79617 0.78671,-1.60951 1.21482,-2.39678 0.3934,-0.73001 0.77839,-1.46439 1.15638,-2.20247 0.33638,-0.67121 0.69293,-1.33196 1.03337,-2.00107 0.33654,-0.62279 0.65208,-1.25837 0.9571,-1.89701 0.28891,-0.59426 0.55661,-1.19867 0.87887,-1.77633 0.25756,-0.54031 0.55238,-1.06114 0.80184,-1.6055 0.23657,-0.46923 0.49906,-0.92418 0.72859,-1.39684 0.19552,-0.41946 0.41725,-0.82663 0.64044,-1.23147 0.17036,-0.3693 0.38662,-0.71264 0.548,-1.0863 0.1398,-0.26935 0.29934,-0.5273 0.42779,-0.80299 0,0 14.43697,-3.92048 14.43697,-3.92048 z"
               inkscape:connector-curvature="0" />
            <path
               style="fill:#000000;stroke:none"
               id="path8781"
               d="m 184.54766,241.30936 c 0.13846,0.23513 0.26265,0.47816 0.39775,0.71555 0.17835,0.33186 0.34351,0.67084 0.52512,1.00092 0.21091,0.39547 0.41591,0.79387 0.62194,1.19188 0.24853,0.43362 0.47081,0.88152 0.6988,1.32611 0.26865,0.50337 0.52224,1.01436 0.77677,1.52493 0.30331,0.58848 0.60486,1.17776 0.89509,1.77282 0.34147,0.68244 0.66107,1.37551 0.98539,2.06619 0.36411,0.78538 0.72532,1.57212 1.09264,2.35601 0.41683,0.89257 0.82741,1.78779 1.25731,2.67417 0.47561,0.99185 0.97796,1.97051 1.47199,2.95322 0.49097,0.98182 1.0014,1.95365 1.50456,2.92923 0.5072,0.97786 1.0102,1.95782 1.53312,2.9274 0.52812,1.0277 1.09728,2.0333 1.65957,3.04245 0.57412,1.02711 1.17278,2.0402 1.7597,3.05999 0.59372,1.01849 1.1866,2.03745 1.77955,3.05639 0.59086,1.01991 1.19854,2.02974 1.80501,3.04038 0.60141,0.97159 1.19881,1.9457 1.80458,2.91457 0.57513,0.9181 1.14567,1.83931 1.72924,2.7521 0.55825,0.87569 1.11965,1.74936 1.67588,2.62636 0.54036,0.82145 1.07238,1.64833 1.61337,2.46934 0.0876,0.13532 0.17515,0.27063 0.26272,0.40595 0,0 -13.82382,5.38752 -13.82382,5.38752 l 0,0 c -0.0865,-0.13355 -0.17302,-0.2671 -0.25953,-0.40065 -0.53791,-0.83028 -1.08003,-1.65782 -1.61289,-2.49135 -0.5555,-0.87672 -1.11219,-1.75266 -1.6675,-2.62949 -0.5791,-0.92079 -1.15716,-1.84231 -1.72705,-2.76883 -0.60197,-0.97863 -1.20605,-1.95597 -1.80154,-2.93856 -0.61046,-1.01624 -1.21877,-2.03369 -1.81345,-3.0593 -0.59337,-1.02103 -1.1884,-2.04109 -1.78158,-3.06223 -0.59095,-1.02525 -1.19156,-2.04503 -1.76813,-3.07851 -0.56684,-1.01497 -1.13591,-2.02872 -1.67355,-3.05964 -0.52734,-0.97775 -1.04007,-1.96312 -1.54936,-2.95037 -0.50548,-0.97982 -1.01264,-1.95875 -1.50661,-2.94444 -0.4969,-0.98688 -0.99976,-1.97081 -1.48351,-2.96425 -0.44236,-0.8902 -0.866,-1.78915 -1.29209,-2.68722 -0.36978,-0.78205 -0.73709,-1.56526 -1.10838,-2.34659 -0.32517,-0.68114 -0.64915,-1.36303 -0.99089,-2.03606 -0.29645,-0.58919 -0.60522,-1.17202 -0.90823,-1.75784 -0.25585,-0.50399 -0.51659,-1.00534 -0.78414,-1.50324 -0.23079,-0.44084 -0.45886,-0.88301 -0.70324,-1.31657 -0.20773,-0.39098 -0.41222,-0.78363 -0.62747,-1.17057 -0.17121,-0.32245 -0.34231,-0.64518 -0.52436,-0.96167 -0.14368,-0.24992 -0.28497,-0.50115 -0.42693,-0.752 0,0 13.98415,-5.3141 13.98415,-5.3141 z"
               inkscape:connector-curvature="0" />
          </g>
        </g>
      </g>
      <text
         transform="scale(1.0149816,0.98523952)"
         sodipodi:linespacing="125%"
         id="text7576"
         y="379.20654"
         x="251.03207"
         style="font-size:25.86001778px;font-style:normal;font-variant:normal;font-weight:bold;font-stretch:normal;line-height:125%;letter-spacing:0px;word-spacing:0px;fill:#000000;fill-opacity:1;stroke:#ffffff;stroke-width:0.97032529;stroke-linejoin:round;stroke-miterlimit:4;stroke-opacity:1;stroke-dasharray:none;font-family:Arial;-inkscape-font-specification:Arial Bold"
         xml:space="preserve"><tspan
           style="font-style:normal;font-variant:normal;font-weight:normal;font-stretch:normal;stroke:none;font-family:Mongolian Baiti;-inkscape-font-specification:Mongolian Baiti"
           y="379.20654"
           x="251.03207"
           id="tspan7578"
           sodipodi:role="line">CHURCH OF CHRIST</tspan></text>
    </g>
    <text
       xml:space="preserve"
       style="font-size:24px;font-style:normal;font-weight:normal;line-height:125%;letter-spacing:0px;word-spacing:0px;fill:#000000;fill-opacity:1;stroke:none;font-family:Sans"
       x="63.214287"
       y="208.07648"
       id="text8514"
       sodipodi:linespacing="125%"><tspan
         sodipodi:role="line"
         id="tspan8516"
         x="63.214287"
         y="208.07648"> </tspan></text>
  </g>
</svg>
